<?xml version="1.0" encoding="UTF-8"?> <svg xmlns="http://www.w3.org/2000/svg" id="a" viewBox="0 0 1417.33 340.16"><path d="M420.95,170.24c0-32.07,21.76-55.3,51.7-55.3,22.09,0,42.38,13.74,48.43,32.72l-25.2,9.49c-2.94-11.45-12.6-19.63-22.91-19.63-15.38,0-26.51,13.58-26.51,32.23s11.45,32.56,27.16,32.56c12.43,0,22.09-8.67,23.23-20.94h-35.01v-17.02h57.92l5.24,58.9h-14.4l-5.56-20.94c-3.76,13.58-17.51,22.91-35.01,22.91-28.47,0-49.09-23.07-49.09-54.98Z" style="fill:#55407a;"></path><path d="M538.1,116.9h53.01c19.31,0,33.38,13.91,33.38,33.05,0,13.74-7.85,24.71-20.12,29.78l22.09,43.52h-28.8l-14.56-40.58h-20.78v40.58h-24.22v-106.35ZM586.21,165.66c7.36,0,12.76-5.56,12.76-13.42s-5.4-13.42-12.76-13.42h-23.89v26.83h23.89Z" style="fill:#55407a;"></path><path d="M638.24,116.9h75.92v21.93h-51.7v21.6h42.54v17.02h-42.54v23.56h53.67v22.25h-77.88v-106.35Z" style="fill:#55407a;"></path><path d="M727.24,116.9h75.92v21.93h-51.7v21.6h42.54v17.02h-42.54v23.56h53.67v22.25h-77.88v-106.35Z" style="fill:#55407a;"></path><path d="M816.25,116.9h27.49l37.96,70.68v-70.68h24.22v106.35h-26.18l-39.27-71.99v71.99h-24.22v-106.35Z" style="fill:#55407a;"></path><path d="M972.02,225.22c-30.11,0-53.01-23.72-53.01-55.14s22.42-55.14,52.36-55.14c22.09,0,41.4,13.25,47.78,32.89l-25.2,9.82c-2.45-11.78-11.62-19.8-22.58-19.8-14.56,0-26.18,14.23-26.18,32.23s11.45,31.58,26.83,31.58c11.62,0,20.62-8.34,22.58-21.11l25.85,10.47c-5.73,20.12-25.52,34.2-48.43,34.2Z" style="fill:#55407a;"></path><path d="M1028.96,170.08c0-31.91,22.25-55.14,53.01-55.14s53.01,23.23,53.01,55.14-22.25,55.14-53.01,55.14-53.01-23.23-53.01-55.14ZM1081.97,201.66c15.87,0,27.49-13.58,27.49-31.91s-11.62-31.91-27.49-31.91-27.49,13.25-27.49,31.91,11.62,31.91,27.49,31.91Z" style="fill:#55407a;"></path><path d="M1144.15,170.08c0-31.91,22.25-55.14,53.01-55.14s53.01,23.23,53.01,55.14-22.25,55.14-53.01,55.14-53.01-23.23-53.01-55.14ZM1197.16,201.66c15.87,0,27.49-13.58,27.49-31.91s-11.62-31.91-27.49-31.91-27.49,13.25-27.49,31.91,11.62,31.91,27.49,31.91Z" style="fill:#55407a;"></path><path d="M1263.26,116.9h50.39c20.12,0,34.69,14.4,34.69,34.36s-15.38,34.03-36.65,34.03h-24.22v37.96h-24.22v-106.35ZM1309.4,167.62c7.85,0,13.42-6.05,13.42-14.4s-5.56-14.4-13.42-14.4h-21.93v28.8h21.93Z" style="fill:#55407a;"></path><polygon points="80.3 135.7 116.72 223.41 68.98 254.41 68.98 135.7 80.3 135.7" style="fill:#ead99a;"></polygon><polygon points="68.98 261.97 152.42 207.78 171.27 275.85 68.98 275.85 68.98 261.97" style="fill:#ead99a;"></polygon><path d="M219.17,135.7v21.18l-97.04,63.02-34.97-84.2h19.13c8.22,12.07,22.07,19.99,37.78,19.99s29.56-7.92,37.77-19.99h37.31Z" style="fill:#ead99a;"></path><polygon points="158 204.16 219.17 164.43 219.17 230.41 192.97 275.8 219.17 275.8 219.17 275.85 177.85 275.85 158 204.16" style="fill:#ead99a;"></polygon><path d="M181.86,135.7c-8.22,12.07-22.07,19.99-37.78,19.99s-29.56-7.92-37.78-19.99h75.56Z" style="fill:#85b857;"></path><path d="M189.76,110c0,9.53-2.92,18.37-7.91,25.7h-75.56c-4.99-7.32-7.91-16.17-7.91-25.7,0-25.24,20.45-45.69,45.69-45.69s45.69,20.45,45.69,45.69Z" style="fill:#55407a;"></path><polygon points="336.5 72.69 336.5 155.68 308.47 155.68 285.4 115.71 262.32 155.68 234.28 155.68 234.28 72.69 336.5 72.69" style="fill:#ead99a;"></polygon><polygon points="219.17 230.42 219.17 275.8 192.97 275.8 219.17 230.42" style="fill:#55407a;"></polygon><polygon points="308.47 155.68 262.32 155.68 285.4 115.71 308.47 155.68" style="fill:#55407a;"></polygon><polygon points="274.76 193.75 294.8 275.8 219.17 275.8 219.17 230.41 243.07 189.02 274.76 193.75" style="fill:#85b857;"></polygon><polygon points="331.65 195.83 246.48 183.12 262.32 155.69 308.47 155.69 331.65 195.83" style="fill:#85b857;"></polygon><polygon points="377.82 275.8 301.33 275.8 281.54 194.76 335.7 202.85 377.82 275.8" style="fill:#85b857;"></polygon></svg> 