<?xml version="1.0" encoding="UTF-8"?> <svg xmlns="http://www.w3.org/2000/svg" id="a" viewBox="0 0 841.89 595.28"><path d="M69.2,424.12c0-24.33,16.51-41.95,39.22-41.95,16.76,0,32.15,10.43,36.74,24.82l-19.11,7.2c-2.23-8.69-9.56-14.89-17.38-14.89-11.67,0-20.11,10.3-20.11,24.45s8.69,24.7,20.6,24.7c9.43,0,16.76-6.58,17.62-15.89h-26.56v-12.91h43.94l3.97,44.68h-10.92l-4.22-15.89c-2.85,10.3-13.28,17.38-26.56,17.38-21.6,0-37.24-17.5-37.24-41.7Z" style="fill:#55407a;"></path><path d="M158.06,383.66h40.21c14.65,0,25.32,10.55,25.32,25.07,0,10.43-5.96,18.74-15.27,22.59l16.76,33.02h-21.85l-11.05-30.78h-15.76v30.78h-18.37v-80.68ZM194.55,420.65c5.59,0,9.68-4.22,9.68-10.18s-4.1-10.18-9.68-10.18h-18.12v20.36h18.12Z" style="fill:#55407a;"></path><path d="M234.02,383.66h57.59v16.63h-39.22v16.38h32.27v12.91h-32.27v17.87h40.71v16.88h-59.08v-80.68Z" style="fill:#55407a;"></path><path d="M301.54,383.66h57.59v16.63h-39.22v16.38h32.27v12.91h-32.27v17.87h40.71v16.88h-59.08v-80.68Z" style="fill:#55407a;"></path><path d="M369.06,383.66h20.85l28.8,53.62v-53.62h18.37v80.68h-19.86l-29.79-54.61v54.61h-18.37v-80.68Z" style="fill:#55407a;"></path><path d="M487.22,465.83c-22.84,0-40.21-18-40.21-41.83s17-41.83,39.72-41.83c16.76,0,31.4,10.05,36.24,24.95l-19.11,7.45c-1.86-8.94-8.81-15.02-17.13-15.02-11.05,0-19.86,10.8-19.86,24.45s8.69,23.95,20.36,23.95c8.81,0,15.64-6.33,17.13-16.01l19.61,7.94c-4.34,15.27-19.36,25.94-36.74,25.94Z" style="fill:#55407a;"></path><path d="M530.42,424c0-24.2,16.88-41.83,40.21-41.83s40.21,17.63,40.21,41.83-16.88,41.83-40.21,41.83-40.21-17.63-40.21-41.83ZM570.63,447.95c12.04,0,20.85-10.3,20.85-24.2s-8.81-24.2-20.85-24.2-20.85,10.05-20.85,24.2,8.81,24.2,20.85,24.2Z" style="fill:#55407a;"></path><path d="M617.8,424c0-24.2,16.88-41.83,40.21-41.83s40.21,17.63,40.21,41.83-16.88,41.83-40.21,41.83-40.21-17.63-40.21-41.83ZM658.01,447.95c12.04,0,20.85-10.3,20.85-24.2s-8.81-24.2-20.85-24.2-20.85,10.05-20.85,24.2,8.81,24.2,20.85,24.2Z" style="fill:#55407a;"></path><path d="M708.15,383.66h38.23c15.27,0,26.31,10.92,26.31,26.06s-11.67,25.82-27.8,25.82h-18.37v28.8h-18.37v-80.68ZM743.15,422.14c5.96,0,10.18-4.59,10.18-10.92s-4.22-10.92-10.18-10.92h-16.63v21.84h16.63Z" style="fill:#55407a;"></path><polygon points="277.42 201.05 313.94 289.02 266.07 320.11 266.07 201.05 277.42 201.05" style="fill:#ead99a;"></polygon><polygon points="266.07 327.69 349.75 273.34 368.66 341.62 266.07 341.62 266.07 327.69" style="fill:#ead99a;"></polygon><path d="M416.7,201.05v21.24l-97.32,63.21-35.07-84.45h19.19c8.25,12.11,22.14,20.05,37.9,20.05s29.65-7.95,37.89-20.05h37.42Z" style="fill:#ead99a;"></path><polygon points="355.35 269.71 416.7 229.87 416.7 296.05 390.42 341.57 416.7 341.57 416.7 341.62 375.26 341.62 355.35 269.71" style="fill:#ead99a;"></polygon><path d="M379.28,201.05c-8.24,12.1-22.14,20.05-37.89,20.05s-29.64-7.95-37.89-20.05h75.78Z" style="fill:#85b857;"></path><path d="M387.21,175.27c0,9.56-2.93,18.43-7.93,25.77h-75.78c-5-7.35-7.93-16.22-7.93-25.77,0-25.31,20.52-45.83,45.82-45.83s45.83,20.52,45.83,45.83Z" style="fill:#55407a;"></path><polygon points="534.38 137.86 534.38 221.1 506.27 221.1 483.12 181 459.98 221.1 431.86 221.1 431.86 137.86 534.38 137.86" style="fill:#ead99a;"></polygon><polygon points="416.7 296.05 416.7 341.57 390.42 341.57 416.7 296.05" style="fill:#55407a;"></polygon><polygon points="506.27 221.1 459.98 221.1 483.12 181 506.27 221.1" style="fill:#55407a;"></polygon><polygon points="472.46 259.28 492.56 341.57 416.7 341.57 416.7 296.05 440.67 254.53 472.46 259.28" style="fill:#85b857;"></polygon><polygon points="529.52 261.37 444.09 248.62 459.98 221.1 506.27 221.1 529.52 261.37" style="fill:#85b857;"></polygon><polygon points="575.82 341.57 499.1 341.57 479.25 260.28 533.58 268.4 575.82 341.57" style="fill:#85b857;"></polygon></svg> 