<?xml version="1.0" encoding="UTF-8"?> <svg xmlns="http://www.w3.org/2000/svg" id="a" viewBox="0 0 2409.45 311.81"><path d="M1391.17,55.76v200.28h294.95V55.76h-294.95ZM1680.44,250.33h-283.6V61.26h283.6v189.07Z" style="fill:#fff;"></path><polyline points="1532.6 102.45 1538.58 98.08 1544.57 102.45 1542.29 95.39 1548.37 91.02 1540.88 91.02 1538.58 83.87 1536.29 91.03 1528.8 91.02 1534.88 95.39 1532.6 102.45" style="fill:#fff;"></polyline><polyline points="1501.63 110.77 1507.62 106.4 1513.6 110.77 1511.32 103.71 1517.4 99.34 1509.9 99.34 1507.61 92.19 1505.32 99.35 1497.83 99.34 1503.9 103.71 1501.63 110.77" style="fill:#fff;"></polyline><polyline points="1484.96 114.9 1482.66 122.06 1475.17 122.05 1481.25 126.42 1478.97 133.48 1484.96 129.12 1490.94 133.48 1488.66 126.42 1494.74 122.05 1487.25 122.05 1484.96 114.9" style="fill:#fff;"></polyline><polyline points="1476.64 160.05 1482.62 164.41 1480.35 157.35 1486.42 152.98 1478.94 152.98 1476.64 145.83 1474.35 153 1466.86 152.98 1472.94 157.35 1470.66 164.41 1476.64 160.05" style="fill:#fff;"></polyline><polyline points="1487.25 184.01 1484.96 176.85 1482.66 184.01 1475.17 184.01 1481.25 188.37 1478.97 195.44 1484.96 191.06 1490.94 195.44 1488.66 188.37 1494.74 184.01 1487.25 184.01" style="fill:#fff;"></polyline><polyline points="1509.95 206.71 1507.66 199.56 1505.37 206.72 1497.88 206.71 1503.95 211.08 1501.68 218.14 1507.66 213.77 1513.64 218.14 1511.37 211.08 1517.44 206.71 1509.95 206.71" style="fill:#fff;"></polyline><polyline points="1540.88 214.94 1538.59 207.78 1536.3 214.94 1528.81 214.94 1534.88 219.3 1532.61 226.37 1538.59 222 1544.57 226.37 1542.3 219.3 1548.37 214.94 1540.88 214.94" style="fill:#fff;"></polyline><polyline points="1571.81 206.71 1569.52 199.56 1567.23 206.72 1559.74 206.71 1565.81 211.08 1563.54 218.14 1569.52 213.77 1575.51 218.14 1573.23 211.08 1579.3 206.71 1571.81 206.71" style="fill:#fff;"></polyline><polyline points="1594.52 184.01 1592.23 176.85 1589.93 184.01 1582.44 184.01 1588.52 188.37 1586.24 195.44 1592.23 191.06 1598.21 195.44 1595.93 188.37 1602.01 184.01 1594.52 184.01" style="fill:#fff;"></polyline><polyline points="1610.23 152.9 1602.74 152.9 1600.44 145.74 1598.16 152.9 1590.66 152.9 1596.74 157.26 1594.47 164.33 1600.44 159.95 1606.43 164.33 1604.16 157.26 1610.23 152.9" style="fill:#fff;"></polyline><polyline points="1586.24 133.39 1592.22 129.02 1598.21 133.39 1595.93 126.33 1602.01 121.97 1594.52 121.97 1592.22 114.81 1589.93 121.97 1582.44 121.97 1588.52 126.33 1586.24 133.39" style="fill:#fff;"></polyline><polyline points="1569.61 92.19 1567.32 99.36 1559.83 99.34 1565.9 103.72 1563.62 110.78 1569.62 106.4 1575.59 110.78 1573.32 103.72 1579.4 99.34 1571.9 99.34 1569.61 92.19" style="fill:#fff;"></polyline><path d="M1721.57,132.18v-46.53h31.9v7.87h-22.5v11.01h19.42v7.87h-19.42v19.77h-9.39Z" style="fill:#fff;"></path><path d="M1783.33,132.18v-5.05c-1.23,1.8-2.84,3.22-4.84,4.25-2,1.04-4.11,1.56-6.33,1.56s-4.3-.5-6.09-1.49c-1.8-.99-3.1-2.39-3.9-4.19-.8-1.8-1.21-4.28-1.21-7.46v-21.33h8.92v15.49c0,4.74.16,7.64.49,8.71.33,1.07.92,1.92,1.79,2.54.87.62,1.97.94,3.3.94,1.52,0,2.89-.42,4.09-1.25,1.21-.84,2.03-1.87,2.47-3.11.45-1.24.67-4.27.67-9.09v-14.22h8.92v33.71h-8.28Z" style="fill:#fff;"></path><path d="M1831.51,132.18h-8.92v-17.2c0-3.64-.19-5.99-.57-7.06s-1-1.9-1.86-2.49c-.86-.59-1.89-.89-3.09-.89-1.54,0-2.93.42-4.16,1.27-1.23.85-2.07,1.97-2.52,3.36-.46,1.4-.68,3.98-.68,7.74v15.27h-8.92v-33.71h8.28v4.95c2.94-3.81,6.64-5.71,11.11-5.71,1.97,0,3.77.35,5.4,1.06,1.63.71,2.86,1.61,3.7,2.71.84,1.1,1.42,2.35,1.75,3.75.33,1.4.49,3.4.49,6v20.95Z" style="fill:#fff;"></path><path d="M1871.47,132.18h-8.28v-4.95c-1.38,1.93-3,3.36-4.87,4.3-1.87.94-3.76,1.41-5.67,1.41-3.87,0-7.19-1.56-9.95-4.68-2.76-3.12-4.14-7.47-4.14-13.06s1.34-10.06,4.03-13.03c2.69-2.97,6.08-4.46,10.19-4.46,3.77,0,7.02,1.57,9.78,4.7v-16.76h8.92v46.53ZM1847.66,114.6c0,3.6.5,6.2,1.49,7.81,1.44,2.33,3.45,3.49,6.03,3.49,2.05,0,3.8-.87,5.24-2.62,1.44-1.75,2.16-4.35,2.16-7.82,0-3.87-.7-6.66-2.09-8.36s-3.19-2.56-5.36-2.56-3.89.84-5.32,2.52c-1.43,1.68-2.14,4.2-2.14,7.54Z" style="fill:#fff;"></path><path d="M1899.78,121.45l8.89,1.49c-1.14,3.26-2.95,5.74-5.41,7.44-2.47,1.7-5.55,2.55-9.25,2.55-5.86,0-10.2-1.91-13.01-5.74-2.22-3.07-3.33-6.94-3.33-11.62,0-5.59,1.46-9.96,4.38-13.12s6.61-4.75,11.08-4.75c5.01,0,8.97,1.66,11.87,4.97,2.9,3.31,4.28,8.38,4.16,15.22h-22.34c.06,2.65.78,4.7,2.16,6.17,1.38,1.47,3.09,2.21,5.14,2.21,1.4,0,2.57-.38,3.52-1.14s1.67-1.99,2.16-3.68ZM1900.29,112.44c-.06-2.58-.73-4.54-2-5.89-1.27-1.34-2.81-2.02-4.63-2.02-1.95,0-3.55.71-4.82,2.13-1.27,1.42-1.89,3.34-1.87,5.78h13.33Z" style="fill:#fff;"></path><path d="M1947.32,132.18h-8.28v-4.95c-1.38,1.93-3,3.36-4.87,4.3-1.87.94-3.76,1.41-5.67,1.41-3.87,0-7.19-1.56-9.95-4.68-2.76-3.12-4.14-7.47-4.14-13.06s1.34-10.06,4.03-13.03c2.69-2.97,6.08-4.46,10.19-4.46,3.77,0,7.02,1.57,9.78,4.7v-16.76h8.92v46.53ZM1923.52,114.6c0,3.6.5,6.2,1.49,7.81,1.44,2.33,3.45,3.49,6.03,3.49,2.05,0,3.8-.87,5.24-2.62,1.44-1.75,2.16-4.35,2.16-7.82,0-3.87-.7-6.66-2.09-8.36s-3.19-2.56-5.36-2.56-3.89.84-5.32,2.52c-1.43,1.68-2.14,4.2-2.14,7.54Z" style="fill:#fff;"></path><path d="M1973.79,132.18v-46.53h8.92v16.76c2.75-3.13,6.01-4.7,9.78-4.7,4.1,0,7.5,1.49,10.19,4.46,2.69,2.97,4.03,7.24,4.03,12.81s-1.37,10.19-4.11,13.3-6.07,4.67-9.98,4.67c-1.93,0-3.82-.48-5.7-1.44-1.87-.96-3.49-2.39-4.84-4.27v4.95h-8.28ZM1982.65,114.6c0,3.49.55,6.07,1.65,7.74,1.54,2.37,3.6,3.55,6.16,3.55,1.97,0,3.64-.84,5.03-2.52,1.39-1.68,2.08-4.33,2.08-7.95,0-3.85-.7-6.63-2.09-8.33s-3.18-2.56-5.36-2.56-3.91.83-5.33,2.49c-1.42,1.66-2.13,4.18-2.13,7.57Z" style="fill:#fff;"></path><path d="M2009.66,98.47h9.49l8.06,23.93,7.87-23.93h9.24l-11.9,32.44-2.13,5.87c-.78,1.97-1.53,3.47-2.24,4.51-.71,1.04-1.52,1.88-2.44,2.52-.92.65-2.05,1.15-3.4,1.51-1.34.36-2.86.54-4.55.54s-3.4-.18-5.05-.54l-.79-6.98c1.4.27,2.66.41,3.78.41,2.07,0,3.61-.61,4.6-1.82.99-1.22,1.76-2.77,2.29-4.65l-12.82-33.8Z" style="fill:#fff;"></path><path d="M1736.9,176.47v7.11h-6.09v13.58c0,2.75.06,4.35.17,4.81.12.46.38.83.79,1.13.41.3.92.45,1.51.45.83,0,2.02-.29,3.59-.86l.76,6.92c-2.07.89-4.42,1.33-7.04,1.33-1.61,0-3.06-.27-4.35-.81-1.29-.54-2.24-1.24-2.84-2.09-.6-.86-1.02-2.02-1.25-3.47-.19-1.04-.29-3.13-.29-6.29v-14.69h-4.09v-7.11h4.09v-6.7l8.95-5.21v11.9h6.09Z" style="fill:#fff;"></path><path d="M1751.97,163.65v17.11c2.88-3.36,6.32-5.05,10.31-5.05,2.05,0,3.9.38,5.55,1.14s2.89,1.74,3.73,2.92c.84,1.19,1.41,2.5,1.71,3.94.31,1.44.46,3.67.46,6.7v19.77h-8.92v-17.8c0-3.53-.17-5.78-.51-6.73-.34-.95-.94-1.71-1.79-2.27-.86-.56-1.93-.84-3.22-.84-1.48,0-2.8.36-3.97,1.08-1.16.72-2.01,1.8-2.55,3.25-.54,1.45-.81,3.59-.81,6.43v16.88h-8.92v-46.53h8.92Z" style="fill:#fff;"></path><path d="M1802.31,199.45l8.89,1.49c-1.14,3.26-2.95,5.74-5.41,7.44-2.47,1.7-5.55,2.55-9.25,2.55-5.86,0-10.2-1.92-13.01-5.74-2.22-3.07-3.33-6.94-3.33-11.62,0-5.59,1.46-9.96,4.38-13.12s6.61-4.75,11.08-4.75c5.01,0,8.97,1.66,11.87,4.97,2.9,3.31,4.28,8.38,4.16,15.22h-22.34c.06,2.65.78,4.7,2.16,6.17,1.38,1.47,3.09,2.21,5.14,2.21,1.4,0,2.57-.38,3.52-1.14s1.67-1.99,2.16-3.68ZM1802.82,190.44c-.06-2.58-.73-4.54-2-5.89-1.27-1.34-2.81-2.02-4.63-2.02-1.95,0-3.55.71-4.82,2.13-1.27,1.42-1.89,3.34-1.87,5.78h13.33Z" style="fill:#fff;"></path><path d="M1837.06,210.18v-46.53h34.5v7.87h-25.11v10.32h23.36v7.84h-23.36v12.66h25.99v7.84h-35.39Z" style="fill:#fff;"></path><path d="M1902.54,210.18v-5.05c-1.23,1.8-2.84,3.22-4.84,4.25-2,1.04-4.11,1.55-6.33,1.55s-4.3-.5-6.09-1.49c-1.8-.99-3.1-2.39-3.9-4.19-.8-1.8-1.21-4.28-1.21-7.46v-21.33h8.92v15.49c0,4.74.16,7.64.49,8.71.33,1.07.92,1.92,1.79,2.54.87.62,1.97.94,3.3.94,1.52,0,2.89-.42,4.09-1.25,1.21-.83,2.03-1.87,2.47-3.11.45-1.24.67-4.27.67-9.09v-14.22h8.92v33.71h-8.28Z" style="fill:#fff;"></path><path d="M1928.6,210.18h-8.92v-33.71h8.28v4.79c1.42-2.26,2.69-3.75,3.82-4.47,1.13-.72,2.42-1.08,3.86-1.08,2.03,0,3.99.56,5.87,1.68l-2.76,7.78c-1.5-.97-2.9-1.46-4.19-1.46s-2.31.34-3.17,1.03c-.87.69-1.55,1.93-2.05,3.73-.5,1.8-.75,5.57-.75,11.3v10.41Z" style="fill:#fff;"></path><path d="M1943.29,192.85c0-2.96.73-5.83,2.19-8.6,1.46-2.77,3.53-4.89,6.2-6.35,2.68-1.46,5.67-2.19,8.97-2.19,5.1,0,9.28,1.66,12.54,4.97,3.26,3.31,4.89,7.5,4.89,12.55s-1.65,9.33-4.94,12.68-7.43,5.03-12.42,5.03c-3.09,0-6.04-.7-8.84-2.09s-4.94-3.44-6.39-6.14c-1.46-2.7-2.19-5.98-2.19-9.85ZM1952.43,193.33c0,3.34.79,5.9,2.38,7.68,1.59,1.78,3.54,2.67,5.87,2.67s4.28-.89,5.86-2.67,2.36-4.36,2.36-7.74-.79-5.84-2.36-7.62-3.53-2.67-5.86-2.67-4.28.89-5.87,2.67c-1.59,1.78-2.38,4.34-2.38,7.68Z" style="fill:#fff;"></path><path d="M1984.81,176.47h8.31v4.95c1.08-1.69,2.54-3.07,4.38-4.13,1.84-1.06,3.88-1.59,6.12-1.59,3.91,0,7.24,1.53,9.97,4.6,2.73,3.07,4.09,7.34,4.09,12.82s-1.38,10-4.13,13.12c-2.75,3.12-6.08,4.68-10,4.68-1.86,0-3.55-.37-5.06-1.11-1.51-.74-3.11-2.01-4.78-3.81v16.98h-8.92v-46.53ZM1993.63,192.76c0,3.79.75,6.58,2.25,8.39,1.5,1.81,3.33,2.71,5.49,2.71s3.8-.83,5.17-2.49c1.38-1.66,2.06-4.38,2.06-8.17,0-3.53-.71-6.16-2.13-7.87-1.42-1.71-3.17-2.57-5.27-2.57s-3.99.84-5.43,2.52c-1.44,1.68-2.16,4.17-2.16,7.47Z" style="fill:#fff;"></path><path d="M2044.28,199.45l8.89,1.49c-1.14,3.26-2.95,5.74-5.41,7.44-2.47,1.7-5.55,2.55-9.25,2.55-5.86,0-10.2-1.92-13.01-5.74-2.22-3.07-3.33-6.94-3.33-11.62,0-5.59,1.46-9.96,4.38-13.12s6.61-4.75,11.08-4.75c5.01,0,8.97,1.66,11.87,4.97,2.9,3.31,4.28,8.38,4.16,15.22h-22.34c.06,2.65.78,4.7,2.16,6.17,1.38,1.47,3.09,2.21,5.14,2.21,1.4,0,2.57-.38,3.52-1.14s1.67-1.99,2.16-3.68ZM2044.79,190.44c-.06-2.58-.73-4.54-2-5.89-1.27-1.34-2.81-2.02-4.63-2.02-1.95,0-3.55.71-4.82,2.13-1.27,1.42-1.89,3.34-1.87,5.78h13.33Z" style="fill:#fff;"></path><path d="M2067.58,186.76l-8.09-1.46c.91-3.26,2.48-5.67,4.7-7.24,2.22-1.57,5.52-2.35,9.9-2.35,3.98,0,6.94.47,8.89,1.41,1.95.94,3.32,2.14,4.11,3.59.79,1.45,1.19,4.11,1.19,7.98l-.09,10.41c0,2.96.14,5.15.43,6.55.29,1.41.82,2.92,1.6,4.52h-8.82c-.23-.59-.52-1.47-.86-2.63-.15-.53-.25-.88-.32-1.05-1.52,1.48-3.15,2.59-4.89,3.33-1.73.74-3.59,1.11-5.55,1.11-3.47,0-6.21-.94-8.2-2.82-2-1.88-3-4.26-3-7.14,0-1.9.46-3.6,1.37-5.09.91-1.49,2.18-2.63,3.82-3.43,1.64-.79,4-1.49,7.09-2.08,4.17-.78,7.06-1.51,8.66-2.19v-.89c0-1.71-.42-2.94-1.27-3.67-.85-.73-2.44-1.1-4.79-1.1-1.59,0-2.83.31-3.71.94-.89.62-1.61,1.72-2.16,3.29ZM2079.51,193.99c-1.14.38-2.95.84-5.43,1.36-2.48.53-4.09,1.05-4.86,1.56-1.16.83-1.75,1.87-1.75,3.14s.46,2.33,1.4,3.24c.93.91,2.12,1.36,3.55,1.36,1.61,0,3.14-.53,4.6-1.59,1.08-.8,1.79-1.79,2.13-2.95.23-.76.35-2.21.35-4.35v-1.78Z" style="fill:#fff;"></path><path d="M2127.72,210.18h-8.92v-17.2c0-3.64-.19-5.99-.57-7.06s-1-1.9-1.86-2.49c-.86-.59-1.89-.89-3.09-.89-1.54,0-2.93.42-4.16,1.27-1.23.85-2.07,1.97-2.52,3.37-.46,1.4-.68,3.98-.68,7.74v15.27h-8.92v-33.71h8.28v4.95c2.94-3.81,6.64-5.71,11.11-5.71,1.97,0,3.77.35,5.4,1.06,1.63.71,2.86,1.61,3.7,2.71.84,1.1,1.42,2.35,1.75,3.75.33,1.4.49,3.4.49,6v20.95Z" style="fill:#fff;"></path><path d="M2154.83,163.65h9.39v25.2c0,4,.12,6.59.35,7.78.4,1.9,1.36,3.43,2.87,4.59s3.58,1.73,6.21,1.73,4.68-.54,6.03-1.63c1.35-1.09,2.17-2.43,2.44-4.01.27-1.59.41-4.22.41-7.9v-25.74h9.39v24.44c0,5.59-.25,9.53-.76,11.84-.51,2.31-1.44,4.25-2.81,5.84-1.37,1.59-3.19,2.85-5.47,3.79s-5.27,1.41-8.95,1.41c-4.44,0-7.81-.51-10.11-1.54-2.3-1.03-4.11-2.36-5.44-4-1.33-1.64-2.21-3.36-2.63-5.16-.61-2.67-.92-6.6-.92-11.81v-24.82Z" style="fill:#fff;"></path><path d="M2232.43,210.18h-8.92v-17.2c0-3.64-.19-5.99-.57-7.06s-1-1.9-1.86-2.49c-.86-.59-1.89-.89-3.09-.89-1.54,0-2.93.42-4.16,1.27-1.23.85-2.07,1.97-2.52,3.37-.46,1.4-.68,3.98-.68,7.74v15.27h-8.92v-33.71h8.28v4.95c2.94-3.81,6.64-5.71,11.11-5.71,1.97,0,3.77.35,5.4,1.06,1.63.71,2.86,1.61,3.7,2.71.84,1.1,1.42,2.35,1.75,3.75.33,1.4.49,3.4.49,6v20.95Z" style="fill:#fff;"></path><path d="M2241.47,171.9v-8.25h8.92v8.25h-8.92ZM2241.47,210.18v-33.71h8.92v33.71h-8.92Z" style="fill:#fff;"></path><path d="M2257.47,192.85c0-2.96.73-5.83,2.19-8.6,1.46-2.77,3.53-4.89,6.2-6.35,2.68-1.46,5.67-2.19,8.97-2.19,5.1,0,9.28,1.66,12.54,4.97,3.26,3.31,4.89,7.5,4.89,12.55s-1.65,9.33-4.94,12.68-7.43,5.03-12.42,5.03c-3.09,0-6.04-.7-8.84-2.09s-4.94-3.44-6.39-6.14c-1.46-2.7-2.19-5.98-2.19-9.85ZM2266.61,193.33c0,3.34.79,5.9,2.38,7.68,1.59,1.78,3.54,2.67,5.87,2.67s4.28-.89,5.86-2.67,2.36-4.36,2.36-7.74-.79-5.84-2.36-7.62-3.53-2.67-5.86-2.67-4.28.89-5.87,2.67c-1.59,1.78-2.38,4.34-2.38,7.68Z" style="fill:#fff;"></path><path d="M2329.89,210.18h-8.92v-17.2c0-3.64-.19-5.99-.57-7.06s-1-1.9-1.86-2.49c-.86-.59-1.89-.89-3.09-.89-1.54,0-2.93.42-4.16,1.27-1.23.85-2.07,1.97-2.52,3.37-.46,1.4-.68,3.98-.68,7.74v15.27h-8.92v-33.71h8.28v4.95c2.94-3.81,6.64-5.71,11.11-5.71,1.97,0,3.77.35,5.4,1.06,1.63.71,2.86,1.61,3.7,2.71.84,1.1,1.42,2.35,1.75,3.75.33,1.4.49,3.4.49,6v20.95Z" style="fill:#fff;"></path><g style="opacity:.96;"><path d="M90.87,110.74v-30.3h-11.32v-4.05h27.23v4.05h-11.37v30.3h-4.55Z" style="fill:#fff;"></path><path d="M110.91,110.74v-34.36h4.22v12.33c1.97-2.28,4.45-3.42,7.45-3.42,1.84,0,3.45.36,4.8,1.09s2.33,1.73,2.92,3.01.88,3.14.88,5.58v15.77h-4.22v-15.77c0-2.11-.46-3.64-1.37-4.61s-2.21-1.44-3.88-1.44c-1.25,0-2.43.32-3.53.97s-1.89,1.53-2.36,2.64-.7,2.64-.7,4.59v13.62h-4.22Z" style="fill:#fff;"></path><path d="M137.63,81.23v-4.85h4.22v4.85h-4.22ZM137.63,110.74v-24.89h4.22v24.89h-4.22Z" style="fill:#fff;"></path><path d="M146.59,103.31l4.17-.66c.23,1.67.89,2.95,1.96,3.84s2.57,1.34,4.49,1.34,3.38-.39,4.31-1.18,1.41-1.71,1.41-2.78c0-.95-.41-1.7-1.24-2.25-.58-.38-2.02-.85-4.31-1.43-3.09-.78-5.24-1.46-6.43-2.03s-2.1-1.36-2.72-2.37-.93-2.12-.93-3.34c0-1.11.25-2.14.76-3.08s1.2-1.73,2.07-2.36c.66-.48,1.55-.89,2.68-1.23s2.35-.5,3.64-.5c1.95,0,3.67.28,5.14.84s2.57,1.32,3.27,2.29,1.19,2.25,1.45,3.86l-4.12.56c-.19-1.28-.73-2.28-1.63-3s-2.17-1.08-3.81-1.08c-1.94,0-3.32.32-4.15.96s-1.24,1.39-1.24,2.25c0,.55.17,1.04.52,1.48.34.45.88.83,1.62,1.12.42.16,1.66.52,3.73,1.08,2.98.8,5.07,1.45,6.25,1.96s2.11,1.25,2.78,2.21,1.01,2.17,1.01,3.61-.41,2.73-1.23,3.97-2,2.2-3.55,2.88-3.3,1.02-5.25,1.02c-3.23,0-5.7-.67-7.39-2.02s-2.78-3.34-3.25-5.98Z" style="fill:#fff;"></path><path d="M199.31,120.28v-34.43h3.84v3.23c.91-1.27,1.93-2.21,3.07-2.85s2.52-.95,4.15-.95c2.12,0,4,.55,5.62,1.64s2.85,2.64,3.68,4.63,1.24,4.18,1.24,6.55c0,2.55-.46,4.84-1.37,6.88s-2.24,3.6-3.98,4.69-3.57,1.63-5.5,1.63c-1.41,0-2.67-.3-3.79-.89s-2.04-1.34-2.75-2.25v12.12h-4.22ZM203.13,98.43c0,3.2.65,5.57,1.95,7.1s2.87,2.3,4.71,2.3,3.48-.79,4.82-2.38,2-4.04,2-7.37-.65-5.55-1.96-7.12-2.86-2.37-4.68-2.37-3.39.84-4.77,2.52-2.07,4.12-2.07,7.32Z" style="fill:#fff;"></path><path d="M225.96,110.74v-24.89h3.8v3.77c.97-1.77,1.86-2.93,2.68-3.49s1.72-.84,2.71-.84c1.42,0,2.87.45,4.34,1.36l-1.45,3.91c-1.03-.61-2.06-.91-3.09-.91-.92,0-1.75.28-2.48.83s-1.26,1.32-1.57,2.31c-.47,1.5-.7,3.14-.7,4.92v13.03h-4.22Z" style="fill:#fff;"></path><path d="M240.42,98.29c0-4.61,1.28-8.02,3.84-10.24,2.14-1.84,4.75-2.77,7.83-2.77,3.42,0,6.22,1.12,8.39,3.36s3.26,5.34,3.26,9.29c0,3.2-.48,5.72-1.44,7.56s-2.36,3.26-4.2,4.28-3.84,1.52-6.01,1.52c-3.48,0-6.3-1.12-8.45-3.35s-3.22-5.45-3.22-9.66ZM244.76,98.29c0,3.19.7,5.57,2.09,7.16s3.14,2.38,5.25,2.38,3.84-.8,5.23-2.39,2.09-4.02,2.09-7.29c0-3.08-.7-5.41-2.1-7s-3.14-2.38-5.21-2.38-3.86.79-5.25,2.37-2.09,3.96-2.09,7.15Z" style="fill:#fff;"></path><path d="M263.32,120.39l.8-3.59c.84.22,1.51.33,1.99.33.86,0,1.5-.29,1.92-.86s.63-2,.63-4.28v-26.16h4.22v26.25c0,3.06-.4,5.2-1.2,6.4-1.02,1.56-2.7,2.34-5.06,2.34-1.14,0-2.24-.15-3.3-.45ZM268.67,81.28v-4.9h4.22v4.9h-4.22Z" style="fill:#fff;"></path><path d="M296.39,102.72l4.36.54c-.69,2.55-1.96,4.52-3.82,5.93s-4.23,2.11-7.12,2.11c-3.64,0-6.53-1.12-8.66-3.36s-3.2-5.39-3.2-9.43,1.08-7.44,3.23-9.75,4.95-3.47,8.39-3.47,6.05,1.13,8.16,3.4,3.16,5.45,3.16,9.56c0,.25,0,.62-.02,1.12h-18.56c.16,2.73.93,4.83,2.32,6.28s3.12,2.18,5.2,2.18c1.55,0,2.87-.41,3.96-1.22s1.96-2.11,2.6-3.89ZM282.54,95.9h13.9c-.19-2.09-.72-3.66-1.59-4.71-1.34-1.62-3.09-2.44-5.23-2.44-1.94,0-3.57.65-4.89,1.95s-2.05,3.03-2.19,5.2Z" style="fill:#fff;"></path><path d="M322.29,101.62l4.15.54c-.45,2.86-1.61,5.1-3.48,6.71s-4.16,2.43-6.88,2.43c-3.41,0-6.14-1.11-8.21-3.34s-3.11-5.42-3.11-9.57c0-2.69.45-5.04,1.34-7.05s2.25-3.53,4.07-4.54,3.8-1.51,5.94-1.51c2.7,0,4.91.68,6.63,2.05s2.82,3.31,3.3,5.82l-4.1.63c-.39-1.67-1.08-2.93-2.07-3.77s-2.19-1.27-3.6-1.27c-2.12,0-3.85.76-5.18,2.29s-1.99,3.93-1.99,7.23.64,5.77,1.92,7.29,2.95,2.27,5.02,2.27c1.66,0,3.04-.51,4.15-1.52s1.81-2.58,2.11-4.69Z" style="fill:#fff;"></path><path d="M339.26,106.96l.61,3.73c-1.19.25-2.25.38-3.19.38-1.53,0-2.72-.24-3.56-.73s-1.44-1.12-1.78-1.91-.52-2.45-.52-4.98v-14.32h-3.09v-3.28h3.09v-6.16l4.2-2.53v8.7h4.24v3.28h-4.24v14.55c0,1.2.07,1.98.22,2.32s.39.62.73.82.82.3,1.44.3c.47,0,1.09-.05,1.85-.16Z" style="fill:#fff;"></path><path d="M370.43,110.74v-34.36h4.22v12.33c1.97-2.28,4.45-3.42,7.45-3.42,1.84,0,3.45.36,4.8,1.09s2.33,1.73,2.92,3.01.88,3.14.88,5.58v15.77h-4.22v-15.77c0-2.11-.46-3.64-1.37-4.61s-2.21-1.44-3.88-1.44c-1.25,0-2.43.32-3.53.97s-1.89,1.53-2.36,2.64-.7,2.64-.7,4.59v13.62h-4.22Z" style="fill:#fff;"></path><path d="M413.36,107.67c-1.56,1.33-3.07,2.27-4.51,2.81s-3,.82-4.65.82c-2.73,0-4.84-.67-6.3-2s-2.2-3.04-2.2-5.12c0-1.22.28-2.33.83-3.34s1.28-1.82,2.18-2.43,1.91-1.07,3.04-1.38c.83-.22,2.08-.43,3.75-.63,3.41-.41,5.91-.89,7.52-1.45.02-.58.02-.95.02-1.1,0-1.72-.4-2.93-1.2-3.63-1.08-.95-2.68-1.43-4.8-1.43-1.98,0-3.45.35-4.39,1.04s-1.64,1.93-2.1,3.69l-4.12-.56c.38-1.77.99-3.19,1.85-4.28s2.1-1.92,3.73-2.51,3.51-.88,5.65-.88,3.85.25,5.18.75,2.3,1.13,2.93,1.89,1.06,1.71,1.31,2.87c.14.72.21,2.02.21,3.89v5.62c0,3.92.09,6.4.27,7.44s.54,2.04,1.07,2.99h-4.41c-.44-.88-.72-1.9-.84-3.07ZM413.01,98.25c-1.53.62-3.83,1.16-6.89,1.59-1.73.25-2.96.53-3.68.84s-1.27.77-1.66,1.37-.59,1.27-.59,2c0,1.12.43,2.06,1.28,2.81s2.1,1.12,3.74,1.12,3.07-.36,4.34-1.07,2.2-1.68,2.79-2.92c.45-.95.68-2.36.68-4.22v-1.55Z" style="fill:#fff;"></path><path d="M422.13,103.31l4.17-.66c.23,1.67.89,2.95,1.96,3.84s2.57,1.34,4.49,1.34,3.38-.39,4.31-1.18,1.41-1.71,1.41-2.78c0-.95-.41-1.7-1.24-2.25-.58-.38-2.02-.85-4.31-1.43-3.09-.78-5.24-1.46-6.43-2.03s-2.1-1.36-2.72-2.37-.93-2.12-.93-3.34c0-1.11.25-2.14.76-3.08s1.2-1.73,2.07-2.36c.66-.48,1.55-.89,2.68-1.23s2.35-.5,3.64-.5c1.95,0,3.67.28,5.14.84s2.57,1.32,3.27,2.29,1.19,2.25,1.45,3.86l-4.12.56c-.19-1.28-.73-2.28-1.63-3s-2.17-1.08-3.81-1.08c-1.94,0-3.32.32-4.15.96s-1.24,1.39-1.24,2.25c0,.55.17,1.04.52,1.48.34.45.88.83,1.62,1.12.42.16,1.66.52,3.73,1.08,2.98.8,5.07,1.45,6.25,1.96s2.11,1.25,2.78,2.21,1.01,2.17,1.01,3.61-.41,2.73-1.23,3.97-2,2.2-3.55,2.88-3.3,1.02-5.25,1.02c-3.23,0-5.7-.67-7.39-2.02s-2.78-3.34-3.25-5.98Z" style="fill:#fff;"></path><path d="M474.81,110.74v-24.89h3.8v3.77c.97-1.77,1.86-2.93,2.68-3.49s1.72-.84,2.71-.84c1.42,0,2.87.45,4.34,1.36l-1.45,3.91c-1.03-.61-2.06-.91-3.09-.91-.92,0-1.75.28-2.48.83s-1.26,1.32-1.57,2.31c-.47,1.5-.7,3.14-.7,4.92v13.03h-4.22Z" style="fill:#fff;"></path><path d="M507.88,102.72l4.36.54c-.69,2.55-1.96,4.52-3.82,5.93s-4.23,2.11-7.12,2.11c-3.64,0-6.53-1.12-8.66-3.36s-3.2-5.39-3.2-9.43,1.08-7.44,3.23-9.75,4.95-3.47,8.39-3.47,6.05,1.13,8.16,3.4,3.16,5.45,3.16,9.56c0,.25,0,.62-.02,1.12h-18.56c.16,2.73.93,4.83,2.32,6.28s3.12,2.18,5.2,2.18c1.55,0,2.87-.41,3.96-1.22s1.96-2.11,2.6-3.89ZM494.03,95.9h13.9c-.19-2.09-.72-3.66-1.59-4.71-1.34-1.62-3.09-2.44-5.23-2.44-1.94,0-3.57.65-4.89,1.95s-2.05,3.03-2.19,5.2Z" style="fill:#fff;"></path><path d="M533.78,101.62l4.15.54c-.45,2.86-1.61,5.1-3.48,6.71s-4.16,2.43-6.88,2.43c-3.41,0-6.14-1.11-8.21-3.34s-3.11-5.42-3.11-9.57c0-2.69.45-5.04,1.34-7.05s2.25-3.53,4.07-4.54,3.8-1.51,5.94-1.51c2.7,0,4.91.68,6.63,2.05s2.82,3.31,3.3,5.82l-4.1.63c-.39-1.67-1.08-2.93-2.07-3.77s-2.19-1.27-3.6-1.27c-2.12,0-3.85.76-5.18,2.29s-1.99,3.93-1.99,7.23.64,5.77,1.92,7.29,2.95,2.27,5.02,2.27c1.66,0,3.04-.51,4.15-1.52s1.81-2.58,2.11-4.69Z" style="fill:#fff;"></path><path d="M558.58,102.72l4.36.54c-.69,2.55-1.96,4.52-3.82,5.93s-4.23,2.11-7.12,2.11c-3.64,0-6.53-1.12-8.66-3.36s-3.2-5.39-3.2-9.43,1.08-7.44,3.23-9.75,4.95-3.47,8.39-3.47,6.05,1.13,8.16,3.4,3.16,5.45,3.16,9.56c0,.25,0,.62-.02,1.12h-18.56c.16,2.73.93,4.83,2.32,6.28s3.12,2.18,5.2,2.18c1.55,0,2.87-.41,3.96-1.22s1.96-2.11,2.6-3.89ZM544.72,95.9h13.9c-.19-2.09-.72-3.66-1.59-4.71-1.34-1.62-3.09-2.44-5.23-2.44-1.94,0-3.57.65-4.89,1.95s-2.05,3.03-2.19,5.2Z" style="fill:#fff;"></path><path d="M568.26,81.23v-4.85h4.22v4.85h-4.22ZM568.26,110.74v-24.89h4.22v24.89h-4.22Z" style="fill:#fff;"></path><path d="M585.81,110.74l-9.47-24.89h4.45l5.34,14.91c.58,1.61,1.11,3.28,1.59,5.02.38-1.31.9-2.89,1.57-4.73l5.53-15.19h4.34l-9.42,24.89h-3.94Z" style="fill:#fff;"></path><path d="M619.93,102.72l4.36.54c-.69,2.55-1.96,4.52-3.82,5.93s-4.23,2.11-7.12,2.11c-3.64,0-6.53-1.12-8.66-3.36s-3.2-5.39-3.2-9.43,1.08-7.44,3.23-9.75,4.95-3.47,8.39-3.47,6.05,1.13,8.16,3.4,3.16,5.45,3.16,9.56c0,.25,0,.62-.02,1.12h-18.56c.16,2.73.93,4.83,2.32,6.28s3.12,2.18,5.2,2.18c1.55,0,2.87-.41,3.96-1.22s1.96-2.11,2.6-3.89ZM606.08,95.9h13.9c-.19-2.09-.72-3.66-1.59-4.71-1.34-1.62-3.09-2.44-5.23-2.44-1.94,0-3.57.65-4.89,1.95s-2.05,3.03-2.19,5.2Z" style="fill:#fff;"></path><path d="M645.74,110.74v-3.14c-1.58,2.47-3.9,3.7-6.96,3.7-1.98,0-3.81-.55-5.47-1.64s-2.95-2.62-3.87-4.58-1.37-4.21-1.37-6.76.41-4.74,1.24-6.76,2.07-3.57,3.73-4.65,3.51-1.62,5.55-1.62c1.5,0,2.84.32,4.01.95s2.12,1.46,2.86,2.47v-12.33h4.2v34.36h-3.91ZM632.4,98.32c0,3.19.67,5.57,2.02,7.15s2.93,2.37,4.76,2.37,3.41-.75,4.7-2.26,1.93-3.81,1.93-6.9c0-3.41-.66-5.91-1.97-7.5s-2.93-2.39-4.85-2.39-3.44.77-4.7,2.3-1.89,3.95-1.89,7.24Z" style="fill:#fff;"></path><path d="M684.34,110.74v-21.61h-3.73v-3.28h3.73v-2.65c0-1.67.15-2.91.45-3.73.41-1.09,1.12-1.98,2.14-2.66s2.46-1.02,4.3-1.02c1.19,0,2.5.14,3.94.42l-.63,3.68c-.88-.16-1.7-.23-2.48-.23-1.28,0-2.19.27-2.72.82s-.8,1.57-.8,3.07v2.3h4.85v3.28h-4.85v21.61h-4.2Z" style="fill:#fff;"></path><path d="M712.98,110.74v-3.66c-1.94,2.81-4.57,4.22-7.9,4.22-1.47,0-2.84-.28-4.11-.84s-2.22-1.27-2.84-2.12-1.05-1.89-1.3-3.13c-.17-.83-.26-2.14-.26-3.94v-15.42h4.22v13.8c0,2.2.09,3.69.26,4.45.27,1.11.83,1.98,1.69,2.61s1.92.95,3.19.95,2.45-.32,3.56-.97,1.89-1.53,2.36-2.65.69-2.74.69-4.86v-13.34h4.22v24.89h-3.77Z" style="fill:#fff;"></path><path d="M723.36,110.74v-24.89h3.8v3.54c1.83-2.73,4.47-4.1,7.92-4.1,1.5,0,2.88.27,4.14.81s2.2,1.25,2.82,2.12,1.06,1.91,1.31,3.12c.16.78.23,2.15.23,4.1v15.3h-4.22v-15.14c0-1.72-.16-3-.49-3.86s-.91-1.53-1.75-2.04-1.82-.76-2.94-.76c-1.8,0-3.35.57-4.65,1.71s-1.96,3.3-1.96,6.49v13.59h-4.22Z" style="fill:#fff;"></path><path d="M766.2,110.74v-3.14c-1.58,2.47-3.9,3.7-6.96,3.7-1.98,0-3.81-.55-5.47-1.64s-2.95-2.62-3.87-4.58-1.37-4.21-1.37-6.76.41-4.74,1.24-6.76,2.07-3.57,3.73-4.65,3.51-1.62,5.55-1.62c1.5,0,2.84.32,4.01.95s2.12,1.46,2.86,2.47v-12.33h4.2v34.36h-3.91ZM752.87,98.32c0,3.19.67,5.57,2.02,7.15s2.93,2.37,4.76,2.37,3.41-.75,4.7-2.26,1.93-3.81,1.93-6.9c0-3.41-.66-5.91-1.97-7.5s-2.93-2.39-4.85-2.39-3.44.77-4.7,2.3-1.89,3.95-1.89,7.24Z" style="fill:#fff;"></path><path d="M776.77,81.23v-4.85h4.22v4.85h-4.22ZM776.77,110.74v-24.89h4.22v24.89h-4.22Z" style="fill:#fff;"></path><path d="M787.41,110.74v-24.89h3.8v3.54c1.83-2.73,4.47-4.1,7.92-4.1,1.5,0,2.88.27,4.14.81s2.2,1.25,2.82,2.12,1.06,1.91,1.31,3.12c.16.78.23,2.15.23,4.1v15.3h-4.22v-15.14c0-1.72-.16-3-.49-3.86s-.91-1.53-1.75-2.04-1.82-.76-2.94-.76c-1.8,0-3.35.57-4.65,1.71s-1.96,3.3-1.96,6.49v13.59h-4.22Z" style="fill:#fff;"></path><path d="M813.34,112.8l4.1.61c.17,1.27.65,2.19,1.43,2.77,1.05.78,2.48,1.17,4.29,1.17,1.95,0,3.46-.39,4.52-1.17s1.78-1.88,2.16-3.28c.22-.86.32-2.66.3-5.41-1.84,2.17-4.14,3.26-6.89,3.26-3.42,0-6.07-1.23-7.95-3.7s-2.81-5.43-2.81-8.88c0-2.38.43-4.57,1.29-6.57s2.11-3.56,3.74-4.65,3.55-1.64,5.75-1.64c2.94,0,5.36,1.19,7.27,3.56v-3h3.89v21.52c0,3.88-.39,6.62-1.18,8.24s-2.04,2.89-3.75,3.83-3.82,1.41-6.32,1.41c-2.97,0-5.37-.67-7.2-2s-2.71-3.35-2.65-6.04ZM816.83,97.85c0,3.27.65,5.65,1.95,7.15s2.92,2.25,4.88,2.25,3.56-.75,4.88-2.24,1.97-3.83,1.97-7.02-.68-5.34-2.03-6.89-2.98-2.32-4.89-2.32-3.47.76-4.78,2.29-1.97,3.79-1.97,6.79Z" style="fill:#fff;"></path><path d="M868.85,110.74v-21.61h-3.73v-3.28h3.73v-2.65c0-1.67.15-2.91.45-3.73.41-1.09,1.12-1.98,2.14-2.66s2.46-1.02,4.3-1.02c1.19,0,2.5.14,3.94.42l-.63,3.68c-.88-.16-1.7-.23-2.48-.23-1.28,0-2.19.27-2.72.82s-.8,1.57-.8,3.07v2.3h4.85v3.28h-4.85v21.61h-4.2Z" style="fill:#fff;"></path><path d="M881.14,110.74v-24.89h3.8v3.77c.97-1.77,1.86-2.93,2.68-3.49s1.72-.84,2.71-.84c1.42,0,2.87.45,4.34,1.36l-1.45,3.91c-1.03-.61-2.06-.91-3.09-.91-.92,0-1.75.28-2.48.83s-1.26,1.32-1.57,2.31c-.47,1.5-.7,3.14-.7,4.92v13.03h-4.22Z" style="fill:#fff;"></path><path d="M895.6,98.29c0-4.61,1.28-8.02,3.84-10.24,2.14-1.84,4.75-2.77,7.83-2.77,3.42,0,6.22,1.12,8.39,3.36s3.26,5.34,3.26,9.29c0,3.2-.48,5.72-1.44,7.56s-2.36,3.26-4.2,4.28-3.84,1.52-6.01,1.52c-3.48,0-6.3-1.12-8.45-3.35s-3.22-5.45-3.22-9.66ZM899.93,98.29c0,3.19.7,5.57,2.09,7.16s3.14,2.38,5.25,2.38,3.84-.8,5.23-2.39,2.09-4.02,2.09-7.29c0-3.08-.7-5.41-2.1-7s-3.14-2.38-5.21-2.38-3.86.79-5.25,2.37-2.09,3.96-2.09,7.15Z" style="fill:#fff;"></path><path d="M923.86,110.74v-24.89h3.77v3.49c.78-1.22,1.82-2.2,3.12-2.94s2.77-1.11,4.43-1.11c1.84,0,3.36.38,4.54,1.15s2.01,1.84,2.5,3.21c1.97-2.91,4.53-4.36,7.69-4.36,2.47,0,4.37.68,5.7,2.05s1.99,3.47,1.99,6.32v17.09h-4.2v-15.68c0-1.69-.14-2.9-.41-3.64s-.77-1.34-1.49-1.79-1.56-.68-2.53-.68c-1.75,0-3.2.58-4.36,1.75s-1.73,3.03-1.73,5.59v14.46h-4.22v-16.17c0-1.88-.34-3.28-1.03-4.22s-1.81-1.41-3.38-1.41c-1.19,0-2.29.31-3.29.94s-1.74,1.54-2.19,2.74-.68,2.94-.68,5.2v12.91h-4.22Z" style="fill:#fff;"></path><path d="M1000.1,106.96l.61,3.73c-1.19.25-2.25.38-3.19.38-1.53,0-2.72-.24-3.56-.73s-1.44-1.12-1.78-1.91-.52-2.45-.52-4.98v-14.32h-3.09v-3.28h3.09v-6.16l4.2-2.53v8.7h4.24v3.28h-4.24v14.55c0,1.2.07,1.98.22,2.32s.39.62.73.82.82.3,1.44.3c.47,0,1.09-.05,1.85-.16Z" style="fill:#fff;"></path><path d="M1004.22,110.74v-34.36h4.22v12.33c1.97-2.28,4.45-3.42,7.45-3.42,1.84,0,3.45.36,4.8,1.09s2.33,1.73,2.92,3.01.88,3.14.88,5.58v15.77h-4.22v-15.77c0-2.11-.46-3.64-1.37-4.61s-2.21-1.44-3.88-1.44c-1.25,0-2.43.32-3.53.97s-1.89,1.53-2.36,2.64-.7,2.64-.7,4.59v13.62h-4.22Z" style="fill:#fff;"></path><path d="M1047.96,102.72l4.36.54c-.69,2.55-1.96,4.52-3.82,5.93s-4.23,2.11-7.12,2.11c-3.64,0-6.53-1.12-8.66-3.36s-3.2-5.39-3.2-9.43,1.08-7.44,3.23-9.75,4.95-3.47,8.39-3.47,6.05,1.13,8.16,3.4,3.16,5.45,3.16,9.56c0,.25,0,.62-.02,1.12h-18.56c.16,2.73.93,4.83,2.32,6.28s3.12,2.18,5.2,2.18c1.55,0,2.87-.41,3.96-1.22s1.96-2.11,2.6-3.89ZM1034.11,95.9h13.9c-.19-2.09-.72-3.66-1.59-4.71-1.34-1.62-3.09-2.44-5.23-2.44-1.94,0-3.57.65-4.89,1.95s-2.05,3.03-2.19,5.2Z" style="fill:#fff;"></path><path d="M1085.29,110.74v-34.36h24.84v4.05h-20.3v10.52h19.01v4.03h-19.01v11.7h21.09v4.05h-25.64Z" style="fill:#fff;"></path><path d="M1132.98,110.74v-3.66c-1.94,2.81-4.57,4.22-7.9,4.22-1.47,0-2.84-.28-4.11-.84s-2.22-1.27-2.84-2.12-1.05-1.89-1.3-3.13c-.17-.83-.26-2.14-.26-3.94v-15.42h4.22v13.8c0,2.2.09,3.69.26,4.45.27,1.11.83,1.98,1.69,2.61s1.92.95,3.19.95,2.45-.32,3.56-.97,1.89-1.53,2.36-2.65.69-2.74.69-4.86v-13.34h4.22v24.89h-3.77Z" style="fill:#fff;"></path><path d="M1143.32,110.74v-24.89h3.8v3.77c.97-1.77,1.86-2.93,2.68-3.49s1.72-.84,2.71-.84c1.42,0,2.87.45,4.34,1.36l-1.45,3.91c-1.03-.61-2.06-.91-3.09-.91-.92,0-1.75.28-2.48.83s-1.26,1.32-1.57,2.31c-.47,1.5-.7,3.14-.7,4.92v13.03h-4.22Z" style="fill:#fff;"></path><path d="M1157.78,98.29c0-4.61,1.28-8.02,3.84-10.24,2.14-1.84,4.75-2.77,7.83-2.77,3.42,0,6.22,1.12,8.39,3.36s3.26,5.34,3.26,9.29c0,3.2-.48,5.72-1.44,7.56s-2.36,3.26-4.2,4.28-3.84,1.52-6.01,1.52c-3.48,0-6.3-1.12-8.45-3.35s-3.22-5.45-3.22-9.66ZM1162.12,98.29c0,3.19.7,5.57,2.09,7.16s3.14,2.38,5.25,2.38,3.84-.8,5.23-2.39,2.09-4.02,2.09-7.29c0-3.08-.7-5.41-2.1-7s-3.14-2.38-5.21-2.38-3.86.79-5.25,2.37-2.09,3.96-2.09,7.15Z" style="fill:#fff;"></path><path d="M1186.05,120.28v-34.43h3.84v3.23c.91-1.27,1.93-2.21,3.07-2.85s2.52-.95,4.15-.95c2.12,0,4,.55,5.62,1.64s2.85,2.64,3.68,4.63,1.24,4.18,1.24,6.55c0,2.55-.46,4.84-1.37,6.88s-2.24,3.6-3.98,4.69-3.57,1.63-5.5,1.63c-1.41,0-2.67-.3-3.79-.89s-2.04-1.34-2.75-2.25v12.12h-4.22ZM1189.87,98.43c0,3.2.65,5.57,1.95,7.1s2.87,2.3,4.71,2.3,3.48-.79,4.82-2.38,2-4.04,2-7.37-.65-5.55-1.96-7.12-2.86-2.37-4.68-2.37-3.39.84-4.77,2.52-2.07,4.12-2.07,7.32Z" style="fill:#fff;"></path><path d="M1229.78,102.72l4.36.54c-.69,2.55-1.96,4.52-3.82,5.93s-4.23,2.11-7.12,2.11c-3.64,0-6.53-1.12-8.66-3.36s-3.2-5.39-3.2-9.43,1.08-7.44,3.23-9.75,4.95-3.47,8.39-3.47,6.05,1.13,8.16,3.4,3.16,5.45,3.16,9.56c0,.25,0,.62-.02,1.12h-18.56c.16,2.73.93,4.83,2.32,6.28s3.12,2.18,5.2,2.18c1.55,0,2.87-.41,3.96-1.22s1.96-2.11,2.6-3.89ZM1215.93,95.9h13.9c-.19-2.09-.72-3.66-1.59-4.71-1.34-1.62-3.09-2.44-5.23-2.44-1.94,0-3.57.65-4.89,1.95s-2.05,3.03-2.19,5.2Z" style="fill:#fff;"></path><path d="M1255.68,107.67c-1.56,1.33-3.07,2.27-4.51,2.81s-3,.82-4.65.82c-2.73,0-4.84-.67-6.3-2s-2.2-3.04-2.2-5.12c0-1.22.28-2.33.83-3.34s1.28-1.82,2.18-2.43,1.91-1.07,3.04-1.38c.83-.22,2.08-.43,3.75-.63,3.41-.41,5.91-.89,7.52-1.45.02-.58.02-.95.02-1.1,0-1.72-.4-2.93-1.2-3.63-1.08-.95-2.68-1.43-4.8-1.43-1.98,0-3.45.35-4.39,1.04s-1.64,1.93-2.1,3.69l-4.12-.56c.38-1.77.99-3.19,1.85-4.28s2.1-1.92,3.73-2.51,3.51-.88,5.65-.88,3.85.25,5.18.75,2.3,1.13,2.93,1.89,1.06,1.71,1.31,2.87c.14.72.21,2.02.21,3.89v5.62c0,3.92.09,6.4.27,7.44s.54,2.04,1.07,2.99h-4.41c-.44-.88-.72-1.9-.84-3.07ZM1255.33,98.25c-1.53.62-3.83,1.16-6.89,1.59-1.73.25-2.96.53-3.68.84s-1.27.77-1.66,1.37-.59,1.27-.59,2c0,1.12.43,2.06,1.28,2.81s2.1,1.12,3.74,1.12,3.07-.36,4.34-1.07,2.2-1.68,2.79-2.92c.45-.95.68-2.36.68-4.22v-1.55Z" style="fill:#fff;"></path><path d="M1266.13,110.74v-24.89h3.8v3.54c1.83-2.73,4.47-4.1,7.92-4.1,1.5,0,2.88.27,4.14.81s2.2,1.25,2.82,2.12,1.06,1.91,1.31,3.12c.16.78.23,2.15.23,4.1v15.3h-4.22v-15.14c0-1.72-.16-3-.49-3.86s-.91-1.53-1.75-2.04-1.82-.76-2.94-.76c-1.8,0-3.35.57-4.65,1.71s-1.96,3.3-1.96,6.49v13.59h-4.22Z" style="fill:#fff;"></path><path d="M104.68,133.98h4.55v19.85c0,3.45-.39,6.2-1.17,8.23s-2.19,3.68-4.23,4.96-4.71,1.91-8.03,1.91-5.85-.55-7.9-1.66-3.51-2.71-4.38-4.82-1.31-4.97-1.31-8.61v-19.85h4.55v19.83c0,2.98.28,5.18.83,6.6s1.51,2.5,2.86,3.27,3,1.15,4.96,1.15c3.34,0,5.73-.76,7.15-2.27s2.13-4.43,2.13-8.74v-19.83Z" style="fill:#fff;"></path><path d="M116.26,168.34v-24.89h3.8v3.54c1.83-2.73,4.47-4.1,7.92-4.1,1.5,0,2.88.27,4.14.81s2.2,1.25,2.82,2.12,1.06,1.91,1.31,3.12c.16.78.23,2.15.23,4.1v15.3h-4.22v-15.14c0-1.72-.16-3-.49-3.86s-.91-1.53-1.75-2.04-1.82-.76-2.94-.76c-1.8,0-3.35.57-4.65,1.71s-1.96,3.3-1.96,6.49v13.59h-4.22Z" style="fill:#fff;"></path><path d="M142.98,138.83v-4.85h4.22v4.85h-4.22ZM142.98,168.34v-24.89h4.22v24.89h-4.22Z" style="fill:#fff;"></path><path d="M152.05,155.89c0-4.61,1.28-8.02,3.84-10.24,2.14-1.84,4.75-2.77,7.83-2.77,3.42,0,6.22,1.12,8.39,3.36s3.26,5.34,3.26,9.29c0,3.2-.48,5.72-1.44,7.56s-2.36,3.26-4.2,4.28-3.84,1.52-6.01,1.52c-3.48,0-6.3-1.12-8.45-3.35s-3.22-5.45-3.22-9.66ZM156.38,155.89c0,3.19.7,5.57,2.09,7.16s3.14,2.38,5.25,2.38,3.84-.8,5.23-2.39,2.09-4.02,2.09-7.29c0-3.08-.7-5.41-2.1-7s-3.14-2.38-5.21-2.38-3.86.79-5.25,2.37-2.09,3.96-2.09,7.15Z" style="fill:#fff;"></path><path d="M180.31,168.34v-24.89h3.8v3.54c1.83-2.73,4.47-4.1,7.92-4.1,1.5,0,2.88.27,4.14.81s2.2,1.25,2.82,2.12,1.06,1.91,1.31,3.12c.16.78.23,2.15.23,4.1v15.3h-4.22v-15.14c0-1.72-.16-3-.49-3.86s-.91-1.53-1.75-2.04-1.82-.76-2.94-.76c-1.8,0-3.35.57-4.65,1.71s-1.96,3.3-1.96,6.49v13.59h-4.22Z" style="fill:#fff;"></path><path d="M206.75,138.53v-4.9h4.52v3.87c0,2.09-.24,3.6-.73,4.52-.67,1.27-1.72,2.22-3.14,2.86l-1.03-1.66c.84-.34,1.47-.89,1.89-1.63s.64-1.76.69-3.06h-2.2Z" style="fill:#fff;"></path><path d="M215.12,160.91l4.17-.66c.23,1.67.89,2.95,1.96,3.84s2.57,1.34,4.49,1.34,3.38-.39,4.31-1.18,1.41-1.71,1.41-2.78c0-.95-.41-1.7-1.24-2.25-.58-.38-2.02-.85-4.31-1.43-3.09-.78-5.24-1.46-6.43-2.03s-2.1-1.36-2.72-2.37-.93-2.12-.93-3.34c0-1.11.25-2.14.76-3.08s1.2-1.73,2.07-2.36c.66-.48,1.55-.89,2.68-1.23s2.35-.5,3.64-.5c1.95,0,3.67.28,5.14.84s2.57,1.32,3.27,2.29,1.19,2.25,1.45,3.86l-4.12.56c-.19-1.28-.73-2.28-1.63-3s-2.17-1.08-3.81-1.08c-1.94,0-3.32.32-4.15.96s-1.24,1.39-1.24,2.25c0,.55.17,1.04.52,1.48.34.45.88.83,1.62,1.12.42.16,1.66.52,3.73,1.08,2.98.8,5.07,1.45,6.25,1.96s2.11,1.25,2.78,2.21,1.01,2.17,1.01,3.61-.41,2.73-1.23,3.97-2,2.2-3.55,2.88-3.3,1.02-5.25,1.02c-3.23,0-5.7-.67-7.39-2.02s-2.78-3.34-3.25-5.98Z" style="fill:#fff;"></path><path d="M290.72,168.34v-34.36h4.55v14.11h17.86v-14.11h4.55v34.36h-4.55v-16.2h-17.86v16.2h-4.55Z" style="fill:#fff;"></path><path d="M323.13,155.89c0-4.61,1.28-8.02,3.84-10.24,2.14-1.84,4.75-2.77,7.83-2.77,3.42,0,6.22,1.12,8.39,3.36s3.26,5.34,3.26,9.29c0,3.2-.48,5.72-1.44,7.56s-2.36,3.26-4.2,4.28-3.84,1.52-6.01,1.52c-3.48,0-6.3-1.12-8.45-3.35s-3.22-5.45-3.22-9.66ZM327.47,155.89c0,3.19.7,5.57,2.09,7.16s3.14,2.38,5.25,2.38,3.84-.8,5.23-2.39,2.09-4.02,2.09-7.29c0-3.08-.7-5.41-2.1-7s-3.14-2.38-5.21-2.38-3.86.79-5.25,2.37-2.09,3.96-2.09,7.15Z" style="fill:#fff;"></path><path d="M351.35,168.34v-24.89h3.8v3.77c.97-1.77,1.86-2.93,2.68-3.49s1.72-.84,2.71-.84c1.42,0,2.87.45,4.34,1.36l-1.45,3.91c-1.03-.61-2.06-.91-3.09-.91-.92,0-1.75.28-2.48.83s-1.26,1.32-1.57,2.31c-.47,1.5-.7,3.14-.7,4.92v13.03h-4.22Z" style="fill:#fff;"></path><path d="M367.41,138.83v-4.85h4.22v4.85h-4.22ZM367.41,168.34v-24.89h4.22v24.89h-4.22Z" style="fill:#fff;"></path><path d="M375.82,168.34v-3.42l15.84-18.19c-1.8.09-3.38.14-4.76.14h-10.15v-3.42h20.34v2.79l-13.48,15.8-2.6,2.88c1.89-.14,3.66-.21,5.32-.21h11.51v3.63h-22.03Z" style="fill:#fff;"></path><path d="M400.48,155.89c0-4.61,1.28-8.02,3.84-10.24,2.14-1.84,4.75-2.77,7.83-2.77,3.42,0,6.22,1.12,8.39,3.36s3.26,5.34,3.26,9.29c0,3.2-.48,5.72-1.44,7.56s-2.36,3.26-4.2,4.28-3.84,1.52-6.01,1.52c-3.48,0-6.3-1.12-8.45-3.35s-3.22-5.45-3.22-9.66ZM404.81,155.89c0,3.19.7,5.57,2.09,7.16s3.14,2.38,5.25,2.38,3.84-.8,5.23-2.39,2.09-4.02,2.09-7.29c0-3.08-.7-5.41-2.1-7s-3.14-2.38-5.21-2.38-3.86.79-5.25,2.37-2.09,3.96-2.09,7.15Z" style="fill:#fff;"></path><path d="M428.74,168.34v-24.89h3.8v3.54c1.83-2.73,4.47-4.1,7.92-4.1,1.5,0,2.88.27,4.14.81s2.2,1.25,2.82,2.12,1.06,1.91,1.31,3.12c.16.78.23,2.15.23,4.1v15.3h-4.22v-15.14c0-1.72-.16-3-.49-3.86s-.91-1.53-1.75-2.04-1.82-.76-2.94-.76c-1.8,0-3.35.57-4.65,1.71s-1.96,3.3-1.96,6.49v13.59h-4.22Z" style="fill:#fff;"></path><path d="M505.3,168.34v-34.36h24.84v4.05h-20.3v10.52h19.01v4.03h-19.01v11.7h21.09v4.05h-25.64Z" style="fill:#fff;"></path><path d="M553,168.34v-3.66c-1.94,2.81-4.57,4.22-7.9,4.22-1.47,0-2.84-.28-4.11-.84s-2.22-1.27-2.84-2.12-1.05-1.89-1.3-3.13c-.17-.83-.26-2.14-.26-3.94v-15.42h4.22v13.8c0,2.2.09,3.69.26,4.45.27,1.11.83,1.98,1.69,2.61s1.92.95,3.19.95,2.45-.32,3.56-.97,1.89-1.53,2.36-2.65.69-2.74.69-4.86v-13.34h4.22v24.89h-3.77Z" style="fill:#fff;"></path><path d="M563.34,168.34v-24.89h3.8v3.77c.97-1.77,1.86-2.93,2.68-3.49s1.72-.84,2.71-.84c1.42,0,2.87.45,4.34,1.36l-1.45,3.91c-1.03-.61-2.06-.91-3.09-.91-.92,0-1.75.28-2.48.83s-1.26,1.32-1.57,2.31c-.47,1.5-.7,3.14-.7,4.92v13.03h-4.22Z" style="fill:#fff;"></path><path d="M577.8,155.89c0-4.61,1.28-8.02,3.84-10.24,2.14-1.84,4.75-2.77,7.83-2.77,3.42,0,6.22,1.12,8.39,3.36s3.26,5.34,3.26,9.29c0,3.2-.48,5.72-1.44,7.56s-2.36,3.26-4.2,4.28-3.84,1.52-6.01,1.52c-3.48,0-6.3-1.12-8.45-3.35s-3.22-5.45-3.22-9.66ZM582.13,155.89c0,3.19.7,5.57,2.09,7.16s3.14,2.38,5.25,2.38,3.84-.8,5.23-2.39,2.09-4.02,2.09-7.29c0-3.08-.7-5.41-2.1-7s-3.14-2.38-5.21-2.38-3.86.79-5.25,2.37-2.09,3.96-2.09,7.15Z" style="fill:#fff;"></path><path d="M606.06,177.88v-34.43h3.84v3.23c.91-1.27,1.93-2.21,3.07-2.85s2.52-.95,4.15-.95c2.12,0,4,.55,5.62,1.64s2.85,2.64,3.68,4.63,1.24,4.18,1.24,6.55c0,2.55-.46,4.84-1.37,6.88s-2.24,3.6-3.98,4.69-3.57,1.63-5.5,1.63c-1.41,0-2.67-.3-3.79-.89s-2.04-1.34-2.75-2.25v12.12h-4.22ZM609.88,156.03c0,3.2.65,5.57,1.95,7.1s2.87,2.3,4.71,2.3,3.48-.79,4.82-2.38,2-4.04,2-7.37-.65-5.55-1.96-7.12-2.86-2.37-4.68-2.37-3.39.84-4.77,2.52-2.07,4.12-2.07,7.32Z" style="fill:#fff;"></path><path d="M649.8,160.32l4.36.54c-.69,2.55-1.96,4.52-3.82,5.93s-4.23,2.11-7.12,2.11c-3.64,0-6.53-1.12-8.66-3.36s-3.2-5.39-3.2-9.43,1.08-7.44,3.23-9.75,4.95-3.47,8.39-3.47,6.05,1.13,8.16,3.4,3.16,5.45,3.16,9.56c0,.25,0,.62-.02,1.12h-18.56c.16,2.73.93,4.83,2.32,6.28s3.12,2.18,5.2,2.18c1.55,0,2.87-.41,3.96-1.22s1.96-2.11,2.6-3.89ZM635.94,153.5h13.9c-.19-2.09-.72-3.66-1.59-4.71-1.34-1.62-3.09-2.44-5.23-2.44-1.94,0-3.57.65-4.89,1.95s-2.05,3.03-2.19,5.2Z" style="fill:#fff;"></path><path d="M708.64,168.34v-24.89h3.8v3.77c.97-1.77,1.86-2.93,2.68-3.49s1.72-.84,2.71-.84c1.42,0,2.87.45,4.34,1.36l-1.45,3.91c-1.03-.61-2.06-.91-3.09-.91-.92,0-1.75.28-2.48.83s-1.26,1.32-1.57,2.31c-.47,1.5-.7,3.14-.7,4.92v13.03h-4.22Z" style="fill:#fff;"></path><path d="M741.71,160.32l4.36.54c-.69,2.55-1.96,4.52-3.82,5.93s-4.23,2.11-7.12,2.11c-3.64,0-6.53-1.12-8.66-3.36s-3.2-5.39-3.2-9.43,1.08-7.44,3.23-9.75,4.95-3.47,8.39-3.47,6.05,1.13,8.16,3.4,3.16,5.45,3.16,9.56c0,.25,0,.62-.02,1.12h-18.56c.16,2.73.93,4.83,2.32,6.28s3.12,2.18,5.2,2.18c1.55,0,2.87-.41,3.96-1.22s1.96-2.11,2.6-3.89ZM727.86,153.5h13.9c-.19-2.09-.72-3.66-1.59-4.71-1.34-1.62-3.09-2.44-5.23-2.44-1.94,0-3.57.65-4.89,1.95s-2.05,3.03-2.19,5.2Z" style="fill:#fff;"></path><path d="M749.68,160.91l4.17-.66c.23,1.67.89,2.95,1.96,3.84s2.57,1.34,4.49,1.34,3.38-.39,4.31-1.18,1.41-1.71,1.41-2.78c0-.95-.41-1.7-1.24-2.25-.58-.38-2.02-.85-4.31-1.43-3.09-.78-5.24-1.46-6.43-2.03s-2.1-1.36-2.72-2.37-.93-2.12-.93-3.34c0-1.11.25-2.14.76-3.08s1.2-1.73,2.07-2.36c.66-.48,1.55-.89,2.68-1.23s2.35-.5,3.64-.5c1.95,0,3.67.28,5.14.84s2.57,1.32,3.27,2.29,1.19,2.25,1.45,3.86l-4.12.56c-.19-1.28-.73-2.28-1.63-3s-2.17-1.08-3.81-1.08c-1.94,0-3.32.32-4.15.96s-1.24,1.39-1.24,2.25c0,.55.17,1.04.52,1.48.34.45.88.83,1.62,1.12.42.16,1.66.52,3.73,1.08,2.98.8,5.07,1.45,6.25,1.96s2.11,1.25,2.78,2.21,1.01,2.17,1.01,3.61-.41,2.73-1.23,3.97-2,2.2-3.55,2.88-3.3,1.02-5.25,1.02c-3.23,0-5.7-.67-7.39-2.02s-2.78-3.34-3.25-5.98Z" style="fill:#fff;"></path><path d="M792.41,160.32l4.36.54c-.69,2.55-1.96,4.52-3.82,5.93s-4.23,2.11-7.12,2.11c-3.64,0-6.53-1.12-8.66-3.36s-3.2-5.39-3.2-9.43,1.08-7.44,3.23-9.75,4.95-3.47,8.39-3.47,6.05,1.13,8.16,3.4,3.16,5.45,3.16,9.56c0,.25,0,.62-.02,1.12h-18.56c.16,2.73.93,4.83,2.32,6.28s3.12,2.18,5.2,2.18c1.55,0,2.87-.41,3.96-1.22s1.96-2.11,2.6-3.89ZM778.55,153.5h13.9c-.19-2.09-.72-3.66-1.59-4.71-1.34-1.62-3.09-2.44-5.23-2.44-1.94,0-3.57.65-4.89,1.95s-2.05,3.03-2.19,5.2Z" style="fill:#fff;"></path><path d="M818.3,165.27c-1.56,1.33-3.07,2.27-4.51,2.81s-3,.82-4.65.82c-2.73,0-4.84-.67-6.3-2s-2.2-3.04-2.2-5.12c0-1.22.28-2.33.83-3.34s1.28-1.82,2.18-2.43,1.91-1.07,3.04-1.38c.83-.22,2.08-.43,3.75-.63,3.41-.41,5.91-.89,7.52-1.45.02-.58.02-.95.02-1.1,0-1.72-.4-2.93-1.2-3.63-1.08-.95-2.68-1.43-4.8-1.43-1.98,0-3.45.35-4.39,1.04s-1.64,1.93-2.1,3.69l-4.12-.56c.38-1.77.99-3.19,1.85-4.28s2.1-1.92,3.73-2.51,3.51-.88,5.65-.88,3.85.25,5.18.75,2.3,1.13,2.93,1.89,1.06,1.71,1.31,2.87c.14.72.21,2.02.21,3.89v5.62c0,3.92.09,6.4.27,7.44s.54,2.04,1.07,2.99h-4.41c-.44-.88-.72-1.9-.84-3.07ZM817.95,155.85c-1.53.62-3.83,1.16-6.89,1.59-1.73.25-2.96.53-3.68.84s-1.27.77-1.66,1.37-.59,1.27-.59,2c0,1.12.43,2.06,1.28,2.81s2.1,1.12,3.74,1.12,3.07-.36,4.34-1.07,2.2-1.68,2.79-2.92c.45-.95.68-2.36.68-4.22v-1.55Z" style="fill:#fff;"></path><path d="M828.71,168.34v-24.89h3.8v3.77c.97-1.77,1.86-2.93,2.68-3.49s1.72-.84,2.71-.84c1.42,0,2.87.45,4.34,1.36l-1.45,3.91c-1.03-.61-2.06-.91-3.09-.91-.92,0-1.75.28-2.48.83s-1.26,1.32-1.57,2.31c-.47,1.5-.7,3.14-.7,4.92v13.03h-4.22Z" style="fill:#fff;"></path><path d="M860.98,159.22l4.15.54c-.45,2.86-1.61,5.1-3.48,6.71s-4.16,2.43-6.88,2.43c-3.41,0-6.14-1.11-8.21-3.34s-3.11-5.42-3.11-9.57c0-2.69.45-5.04,1.34-7.05s2.25-3.53,4.07-4.54,3.8-1.51,5.94-1.51c2.7,0,4.91.68,6.63,2.05s2.82,3.31,3.3,5.82l-4.1.63c-.39-1.67-1.08-2.93-2.07-3.77s-2.19-1.27-3.6-1.27c-2.12,0-3.85.76-5.18,2.29s-1.99,3.93-1.99,7.23.64,5.77,1.92,7.29,2.95,2.27,5.02,2.27c1.66,0,3.04-.51,4.15-1.52s1.81-2.58,2.11-4.69Z" style="fill:#fff;"></path><path d="M868.74,168.34v-34.36h4.22v12.33c1.97-2.28,4.45-3.42,7.45-3.42,1.84,0,3.45.36,4.8,1.09s2.33,1.73,2.92,3.01.88,3.14.88,5.58v15.77h-4.22v-15.77c0-2.11-.46-3.64-1.37-4.61s-2.21-1.44-3.88-1.44c-1.25,0-2.43.32-3.53.97s-1.89,1.53-2.36,2.64-.7,2.64-.7,4.59v13.62h-4.22Z" style="fill:#fff;"></path><path d="M960.91,165.27c-1.56,1.33-3.07,2.27-4.51,2.81s-3,.82-4.65.82c-2.73,0-4.84-.67-6.3-2s-2.2-3.04-2.2-5.12c0-1.22.28-2.33.83-3.34s1.28-1.82,2.18-2.43,1.91-1.07,3.04-1.38c.83-.22,2.08-.43,3.75-.63,3.41-.41,5.91-.89,7.52-1.45.02-.58.02-.95.02-1.1,0-1.72-.4-2.93-1.2-3.63-1.08-.95-2.68-1.43-4.8-1.43-1.98,0-3.45.35-4.39,1.04s-1.64,1.93-2.1,3.69l-4.12-.56c.38-1.77.99-3.19,1.85-4.28s2.1-1.92,3.73-2.51,3.51-.88,5.65-.88,3.85.25,5.18.75,2.3,1.13,2.93,1.89,1.06,1.71,1.31,2.87c.14.72.21,2.02.21,3.89v5.62c0,3.92.09,6.4.27,7.44s.54,2.04,1.07,2.99h-4.41c-.44-.88-.72-1.9-.84-3.07ZM960.56,155.85c-1.53.62-3.83,1.16-6.89,1.59-1.73.25-2.96.53-3.68.84s-1.27.77-1.66,1.37-.59,1.27-.59,2c0,1.12.43,2.06,1.28,2.81s2.1,1.12,3.74,1.12,3.07-.36,4.34-1.07,2.2-1.68,2.79-2.92c.45-.95.68-2.36.68-4.22v-1.55Z" style="fill:#fff;"></path><path d="M971.37,168.34v-24.89h3.8v3.54c1.83-2.73,4.47-4.1,7.92-4.1,1.5,0,2.88.27,4.14.81s2.2,1.25,2.82,2.12,1.06,1.91,1.31,3.12c.16.78.23,2.15.23,4.1v15.3h-4.22v-15.14c0-1.72-.16-3-.49-3.86s-.91-1.53-1.75-2.04-1.82-.76-2.94-.76c-1.8,0-3.35.57-4.65,1.71s-1.96,3.3-1.96,6.49v13.59h-4.22Z" style="fill:#fff;"></path><path d="M1014.21,168.34v-3.14c-1.58,2.47-3.9,3.7-6.96,3.7-1.98,0-3.81-.55-5.47-1.64s-2.95-2.62-3.87-4.58-1.37-4.21-1.37-6.76.41-4.74,1.24-6.76,2.07-3.57,3.73-4.65,3.51-1.62,5.55-1.62c1.5,0,2.84.32,4.01.95s2.12,1.46,2.86,2.47v-12.33h4.2v34.36h-3.91ZM1000.87,155.92c0,3.19.67,5.57,2.02,7.15s2.93,2.37,4.76,2.37,3.41-.75,4.7-2.26,1.93-3.81,1.93-6.9c0-3.41-.66-5.91-1.97-7.5s-2.93-2.39-4.85-2.39-3.44.77-4.7,2.3-1.89,3.95-1.89,7.24Z" style="fill:#fff;"></path><path d="M1074.02,138.83v-4.85h4.22v4.85h-4.22ZM1074.02,168.34v-24.89h4.22v24.89h-4.22Z" style="fill:#fff;"></path><path d="M1084.66,168.34v-24.89h3.8v3.54c1.83-2.73,4.47-4.1,7.92-4.1,1.5,0,2.88.27,4.14.81s2.2,1.25,2.82,2.12,1.06,1.91,1.31,3.12c.16.78.23,2.15.23,4.1v15.3h-4.22v-15.14c0-1.72-.16-3-.49-3.86s-.91-1.53-1.75-2.04-1.82-.76-2.94-.76c-1.8,0-3.35.57-4.65,1.71s-1.96,3.3-1.96,6.49v13.59h-4.22Z" style="fill:#fff;"></path><path d="M1111.35,168.34v-24.89h3.8v3.54c1.83-2.73,4.47-4.1,7.92-4.1,1.5,0,2.88.27,4.14.81s2.2,1.25,2.82,2.12,1.06,1.91,1.31,3.12c.16.78.23,2.15.23,4.1v15.3h-4.22v-15.14c0-1.72-.16-3-.49-3.86s-.91-1.53-1.75-2.04-1.82-.76-2.94-.76c-1.8,0-3.35.57-4.65,1.71s-1.96,3.3-1.96,6.49v13.59h-4.22Z" style="fill:#fff;"></path><path d="M1136.48,155.89c0-4.61,1.28-8.02,3.84-10.24,2.14-1.84,4.75-2.77,7.83-2.77,3.42,0,6.22,1.12,8.39,3.36s3.26,5.34,3.26,9.29c0,3.2-.48,5.72-1.44,7.56s-2.36,3.26-4.2,4.28-3.84,1.52-6.01,1.52c-3.48,0-6.3-1.12-8.45-3.35s-3.22-5.45-3.22-9.66ZM1140.81,155.89c0,3.19.7,5.57,2.09,7.16s3.14,2.38,5.25,2.38,3.84-.8,5.23-2.39,2.09-4.02,2.09-7.29c0-3.08-.7-5.41-2.1-7s-3.14-2.38-5.21-2.38-3.86.79-5.25,2.37-2.09,3.96-2.09,7.15Z" style="fill:#fff;"></path><path d="M1171.66,168.34l-9.47-24.89h4.45l5.34,14.91c.58,1.61,1.11,3.28,1.59,5.02.38-1.31.9-2.89,1.57-4.73l5.53-15.19h4.34l-9.42,24.89h-3.94Z" style="fill:#fff;"></path><path d="M1204.98,165.27c-1.56,1.33-3.07,2.27-4.51,2.81s-3,.82-4.65.82c-2.73,0-4.84-.67-6.3-2s-2.2-3.04-2.2-5.12c0-1.22.28-2.33.83-3.34s1.28-1.82,2.18-2.43,1.91-1.07,3.04-1.38c.83-.22,2.08-.43,3.75-.63,3.41-.41,5.91-.89,7.52-1.45.02-.58.02-.95.02-1.1,0-1.72-.4-2.93-1.2-3.63-1.08-.95-2.68-1.43-4.8-1.43-1.98,0-3.45.35-4.39,1.04s-1.64,1.93-2.1,3.69l-4.12-.56c.38-1.77.99-3.19,1.85-4.28s2.1-1.92,3.73-2.51,3.51-.88,5.65-.88,3.85.25,5.18.75,2.3,1.13,2.93,1.89,1.06,1.71,1.31,2.87c.14.72.21,2.02.21,3.89v5.62c0,3.92.09,6.4.27,7.44s.54,2.04,1.07,2.99h-4.41c-.44-.88-.72-1.9-.84-3.07ZM1204.63,155.85c-1.53.62-3.83,1.16-6.89,1.59-1.73.25-2.96.53-3.68.84s-1.27.77-1.66,1.37-.59,1.27-.59,2c0,1.12.43,2.06,1.28,2.81s2.1,1.12,3.74,1.12,3.07-.36,4.34-1.07,2.2-1.68,2.79-2.92c.45-.95.68-2.36.68-4.22v-1.55Z" style="fill:#fff;"></path><path d="M1224.65,164.56l.61,3.73c-1.19.25-2.25.38-3.19.38-1.53,0-2.72-.24-3.56-.73s-1.44-1.12-1.78-1.91-.52-2.45-.52-4.98v-14.32h-3.09v-3.28h3.09v-6.16l4.2-2.53v8.7h4.24v3.28h-4.24v14.55c0,1.2.07,1.98.22,2.32s.39.62.73.82.82.3,1.44.3c.47,0,1.09-.05,1.85-.16Z" style="fill:#fff;"></path><path d="M1228.8,138.83v-4.85h4.22v4.85h-4.22ZM1228.8,168.34v-24.89h4.22v24.89h-4.22Z" style="fill:#fff;"></path><path d="M1237.87,155.89c0-4.61,1.28-8.02,3.84-10.24,2.14-1.84,4.75-2.77,7.83-2.77,3.42,0,6.22,1.12,8.39,3.36s3.26,5.34,3.26,9.29c0,3.2-.48,5.72-1.44,7.56s-2.36,3.26-4.2,4.28-3.84,1.52-6.01,1.52c-3.48,0-6.3-1.12-8.45-3.35s-3.22-5.45-3.22-9.66ZM1242.2,155.89c0,3.19.7,5.57,2.09,7.16s3.14,2.38,5.25,2.38,3.84-.8,5.23-2.39,2.09-4.02,2.09-7.29c0-3.08-.7-5.41-2.1-7s-3.14-2.38-5.21-2.38-3.86.79-5.25,2.37-2.09,3.96-2.09,7.15Z" style="fill:#fff;"></path><path d="M1266.13,168.34v-24.89h3.8v3.54c1.83-2.73,4.47-4.1,7.92-4.1,1.5,0,2.88.27,4.14.81s2.2,1.25,2.82,2.12,1.06,1.91,1.31,3.12c.16.78.23,2.15.23,4.1v15.3h-4.22v-15.14c0-1.72-.16-3-.49-3.86s-.91-1.53-1.75-2.04-1.82-.76-2.94-.76c-1.8,0-3.35.57-4.65,1.71s-1.96,3.3-1.96,6.49v13.59h-4.22Z" style="fill:#fff;"></path><path d="M81.59,235.48v-34.43h3.84v3.23c.91-1.27,1.93-2.21,3.07-2.85s2.52-.95,4.15-.95c2.12,0,4,.55,5.62,1.64s2.85,2.64,3.68,4.63,1.24,4.18,1.24,6.55c0,2.55-.46,4.84-1.37,6.88s-2.24,3.6-3.98,4.69-3.57,1.63-5.5,1.63c-1.41,0-2.67-.3-3.79-.89s-2.04-1.34-2.75-2.25v12.12h-4.22ZM85.41,213.63c0,3.2.65,5.57,1.95,7.1s2.87,2.3,4.71,2.3,3.48-.79,4.82-2.38,2-4.04,2-7.37-.65-5.55-1.96-7.12-2.86-2.37-4.68-2.37-3.39.84-4.77,2.52-2.07,4.12-2.07,7.32Z" style="fill:#fff;"></path><path d="M108.24,225.94v-24.89h3.8v3.77c.97-1.77,1.86-2.93,2.68-3.49s1.72-.84,2.71-.84c1.42,0,2.87.45,4.34,1.36l-1.45,3.91c-1.03-.61-2.06-.91-3.09-.91-.92,0-1.75.28-2.48.83s-1.26,1.32-1.57,2.31c-.47,1.5-.7,3.14-.7,4.92v13.03h-4.22Z" style="fill:#fff;"></path><path d="M122.7,213.49c0-4.61,1.28-8.02,3.84-10.24,2.14-1.84,4.75-2.77,7.83-2.77,3.42,0,6.22,1.12,8.39,3.36s3.26,5.34,3.26,9.29c0,3.2-.48,5.72-1.44,7.56s-2.36,3.26-4.2,4.28-3.84,1.52-6.01,1.52c-3.48,0-6.3-1.12-8.45-3.35s-3.22-5.45-3.22-9.66ZM127.04,213.49c0,3.19.7,5.57,2.09,7.16s3.14,2.38,5.25,2.38,3.84-.8,5.23-2.39,2.09-4.02,2.09-7.29c0-3.08-.7-5.41-2.1-7s-3.14-2.38-5.21-2.38-3.86.79-5.25,2.37-2.09,3.96-2.09,7.15Z" style="fill:#fff;"></path><path d="M150.19,228l4.1.61c.17,1.27.65,2.19,1.43,2.77,1.05.78,2.48,1.17,4.29,1.17,1.95,0,3.46-.39,4.52-1.17s1.78-1.88,2.16-3.28c.22-.86.32-2.66.3-5.41-1.84,2.17-4.14,3.26-6.89,3.26-3.42,0-6.07-1.23-7.95-3.7s-2.81-5.43-2.81-8.88c0-2.38.43-4.57,1.29-6.57s2.11-3.56,3.74-4.65,3.55-1.64,5.75-1.64c2.94,0,5.36,1.19,7.27,3.56v-3h3.89v21.52c0,3.88-.39,6.62-1.18,8.24s-2.04,2.89-3.75,3.83-3.82,1.41-6.32,1.41c-2.97,0-5.37-.67-7.2-2s-2.71-3.35-2.65-6.04ZM153.69,213.05c0,3.27.65,5.65,1.95,7.15s2.92,2.25,4.88,2.25,3.56-.75,4.88-2.24,1.97-3.83,1.97-7.02-.68-5.34-2.03-6.89-2.98-2.32-4.89-2.32-3.47.76-4.78,2.29-1.97,3.79-1.97,6.79Z" style="fill:#fff;"></path><path d="M177.62,225.94v-24.89h3.8v3.77c.97-1.77,1.86-2.93,2.68-3.49s1.72-.84,2.71-.84c1.42,0,2.87.45,4.34,1.36l-1.45,3.91c-1.03-.61-2.06-.91-3.09-.91-.92,0-1.75.28-2.48.83s-1.26,1.32-1.57,2.31c-.47,1.5-.7,3.14-.7,4.92v13.03h-4.22Z" style="fill:#fff;"></path><path d="M209.89,222.87c-1.56,1.33-3.07,2.27-4.51,2.81s-3,.82-4.65.82c-2.73,0-4.84-.67-6.3-2s-2.2-3.04-2.2-5.12c0-1.22.28-2.33.83-3.34s1.28-1.82,2.18-2.43,1.91-1.07,3.04-1.38c.83-.22,2.08-.43,3.75-.63,3.41-.41,5.91-.89,7.52-1.45.02-.58.02-.95.02-1.1,0-1.72-.4-2.93-1.2-3.63-1.08-.95-2.68-1.43-4.8-1.43-1.98,0-3.45.35-4.39,1.04s-1.64,1.93-2.1,3.69l-4.12-.56c.38-1.77.99-3.19,1.85-4.28s2.1-1.92,3.73-2.51,3.51-.88,5.65-.88,3.85.25,5.18.75,2.3,1.13,2.93,1.89,1.06,1.71,1.31,2.87c.14.72.21,2.02.21,3.89v5.62c0,3.92.09,6.4.27,7.44s.54,2.04,1.07,2.99h-4.41c-.44-.88-.72-1.9-.84-3.07ZM209.54,213.44c-1.53.62-3.83,1.16-6.89,1.59-1.73.25-2.96.53-3.68.84s-1.27.77-1.66,1.37-.59,1.27-.59,2c0,1.12.43,2.06,1.28,2.81s2.1,1.12,3.74,1.12,3.07-.36,4.34-1.07,2.2-1.68,2.79-2.92c.45-.95.68-2.36.68-4.22v-1.55Z" style="fill:#fff;"></path><path d="M220.34,225.94v-24.89h3.77v3.49c.78-1.22,1.82-2.2,3.12-2.94s2.77-1.11,4.43-1.11c1.84,0,3.36.38,4.54,1.15s2.01,1.84,2.5,3.21c1.97-2.91,4.53-4.36,7.69-4.36,2.47,0,4.37.68,5.7,2.05s1.99,3.47,1.99,6.32v17.09h-4.2v-15.68c0-1.69-.14-2.9-.41-3.64s-.77-1.34-1.49-1.79-1.56-.68-2.53-.68c-1.75,0-3.2.58-4.36,1.75s-1.73,3.03-1.73,5.59v14.46h-4.22v-16.17c0-1.88-.34-3.28-1.03-4.22s-1.81-1.41-3.38-1.41c-1.19,0-2.29.31-3.29.94s-1.74,1.54-2.19,2.74-.68,2.94-.68,5.2v12.91h-4.22Z" style="fill:#fff;"></path><path d="M260.33,225.94v-24.89h3.77v3.49c.78-1.22,1.82-2.2,3.12-2.94s2.77-1.11,4.43-1.11c1.84,0,3.36.38,4.54,1.15s2.01,1.84,2.5,3.21c1.97-2.91,4.53-4.36,7.69-4.36,2.47,0,4.37.68,5.7,2.05s1.99,3.47,1.99,6.32v17.09h-4.2v-15.68c0-1.69-.14-2.9-.41-3.64s-.77-1.34-1.49-1.79-1.56-.68-2.53-.68c-1.75,0-3.2.58-4.36,1.75s-1.73,3.03-1.73,5.59v14.46h-4.22v-16.17c0-1.88-.34-3.28-1.03-4.22s-1.81-1.41-3.38-1.41c-1.19,0-2.29.31-3.29.94s-1.74,1.54-2.19,2.74-.68,2.94-.68,5.2v12.91h-4.22Z" style="fill:#fff;"></path><path d="M317.35,217.92l4.36.54c-.69,2.55-1.96,4.52-3.82,5.93s-4.23,2.11-7.12,2.11c-3.64,0-6.53-1.12-8.66-3.36s-3.2-5.39-3.2-9.43,1.08-7.44,3.23-9.75,4.95-3.47,8.39-3.47,6.05,1.13,8.16,3.4,3.16,5.45,3.16,9.56c0,.25,0,.62-.02,1.12h-18.56c.16,2.73.93,4.83,2.32,6.28s3.12,2.18,5.2,2.18c1.55,0,2.87-.41,3.96-1.22s1.96-2.11,2.6-3.89ZM303.5,211.1h13.9c-.19-2.09-.72-3.66-1.59-4.71-1.34-1.62-3.09-2.44-5.23-2.44-1.94,0-3.57.65-4.89,1.95s-2.05,3.03-2.19,5.2Z" style="fill:#fff;"></path><path d="M356.66,225.94v-3.66c-1.94,2.81-4.57,4.22-7.9,4.22-1.47,0-2.84-.28-4.11-.84s-2.22-1.27-2.84-2.12-1.05-1.89-1.3-3.13c-.17-.83-.26-2.14-.26-3.94v-15.42h4.22v13.8c0,2.2.09,3.69.26,4.45.27,1.11.83,1.98,1.69,2.61s1.92.95,3.19.95,2.45-.32,3.56-.97,1.89-1.53,2.36-2.65.69-2.74.69-4.86v-13.34h4.22v24.89h-3.77Z" style="fill:#fff;"></path><path d="M367.04,225.94v-24.89h3.8v3.54c1.83-2.73,4.47-4.1,7.92-4.1,1.5,0,2.88.27,4.14.81s2.2,1.25,2.82,2.12,1.06,1.91,1.31,3.12c.16.78.23,2.15.23,4.1v15.3h-4.22v-15.14c0-1.72-.16-3-.49-3.86s-.91-1.53-1.75-2.04-1.82-.76-2.94-.76c-1.8,0-3.35.57-4.65,1.71s-1.96,3.3-1.96,6.49v13.59h-4.22Z" style="fill:#fff;"></path><path d="M409.88,225.94v-3.14c-1.58,2.47-3.9,3.7-6.96,3.7-1.98,0-3.81-.55-5.47-1.64s-2.95-2.62-3.87-4.58-1.37-4.21-1.37-6.76.41-4.74,1.24-6.76,2.07-3.57,3.73-4.65,3.51-1.62,5.55-1.62c1.5,0,2.84.32,4.01.95s2.12,1.46,2.86,2.47v-12.33h4.2v34.36h-3.91ZM396.55,213.52c0,3.19.67,5.57,2.02,7.15s2.93,2.37,4.76,2.37,3.41-.75,4.7-2.26,1.93-3.81,1.93-6.9c0-3.41-.66-5.91-1.97-7.5s-2.93-2.39-4.85-2.39-3.44.77-4.7,2.3-1.89,3.95-1.89,7.24Z" style="fill:#fff;"></path><path d="M437.47,217.92l4.36.54c-.69,2.55-1.96,4.52-3.82,5.93s-4.23,2.11-7.12,2.11c-3.64,0-6.53-1.12-8.66-3.36s-3.2-5.39-3.2-9.43,1.08-7.44,3.23-9.75,4.95-3.47,8.39-3.47,6.05,1.13,8.16,3.4,3.16,5.45,3.16,9.56c0,.25,0,.62-.02,1.12h-18.56c.16,2.73.93,4.83,2.32,6.28s3.12,2.18,5.2,2.18c1.55,0,2.87-.41,3.96-1.22s1.96-2.11,2.6-3.89ZM423.62,211.1h13.9c-.19-2.09-.72-3.66-1.59-4.71-1.34-1.62-3.09-2.44-5.23-2.44-1.94,0-3.57.65-4.89,1.95s-2.05,3.03-2.19,5.2Z" style="fill:#fff;"></path><path d="M447.08,225.94v-24.89h3.8v3.77c.97-1.77,1.86-2.93,2.68-3.49s1.72-.84,2.71-.84c1.42,0,2.87.45,4.34,1.36l-1.45,3.91c-1.03-.61-2.06-.91-3.09-.91-.92,0-1.75.28-2.48.83s-1.26,1.32-1.57,2.31c-.47,1.5-.7,3.14-.7,4.92v13.03h-4.22Z" style="fill:#fff;"></path><path d="M475.67,228l4.1.61c.17,1.27.65,2.19,1.43,2.77,1.05.78,2.48,1.17,4.29,1.17,1.95,0,3.46-.39,4.52-1.17s1.78-1.88,2.16-3.28c.22-.86.32-2.66.3-5.41-1.84,2.17-4.14,3.26-6.89,3.26-3.42,0-6.07-1.23-7.95-3.7s-2.81-5.43-2.81-8.88c0-2.38.43-4.57,1.29-6.57s2.11-3.56,3.74-4.65,3.55-1.64,5.75-1.64c2.94,0,5.36,1.19,7.27,3.56v-3h3.89v21.52c0,3.88-.39,6.62-1.18,8.24s-2.04,2.89-3.75,3.83-3.82,1.41-6.32,1.41c-2.97,0-5.37-.67-7.2-2s-2.71-3.35-2.65-6.04ZM479.16,213.05c0,3.27.65,5.65,1.95,7.15s2.92,2.25,4.88,2.25,3.56-.75,4.88-2.24,1.97-3.83,1.97-7.02-.68-5.34-2.03-6.89-2.98-2.32-4.89-2.32-3.47.76-4.78,2.29-1.97,3.79-1.97,6.79Z" style="fill:#fff;"></path><path d="M503.09,225.94v-24.89h3.8v3.77c.97-1.77,1.86-2.93,2.68-3.49s1.72-.84,2.71-.84c1.42,0,2.87.45,4.34,1.36l-1.45,3.91c-1.03-.61-2.06-.91-3.09-.91-.92,0-1.75.28-2.48.83s-1.26,1.32-1.57,2.31c-.47,1.5-.7,3.14-.7,4.92v13.03h-4.22Z" style="fill:#fff;"></path><path d="M535.37,222.87c-1.56,1.33-3.07,2.27-4.51,2.81s-3,.82-4.65.82c-2.73,0-4.84-.67-6.3-2s-2.2-3.04-2.2-5.12c0-1.22.28-2.33.83-3.34s1.28-1.82,2.18-2.43,1.91-1.07,3.04-1.38c.83-.22,2.08-.43,3.75-.63,3.41-.41,5.91-.89,7.52-1.45.02-.58.02-.95.02-1.1,0-1.72-.4-2.93-1.2-3.63-1.08-.95-2.68-1.43-4.8-1.43-1.98,0-3.45.35-4.39,1.04s-1.64,1.93-2.1,3.69l-4.12-.56c.38-1.77.99-3.19,1.85-4.28s2.1-1.92,3.73-2.51,3.51-.88,5.65-.88,3.85.25,5.18.75,2.3,1.13,2.93,1.89,1.06,1.71,1.31,2.87c.14.72.21,2.02.21,3.89v5.62c0,3.92.09,6.4.27,7.44s.54,2.04,1.07,2.99h-4.41c-.44-.88-.72-1.9-.84-3.07ZM535.02,213.44c-1.53.62-3.83,1.16-6.89,1.59-1.73.25-2.96.53-3.68.84s-1.27.77-1.66,1.37-.59,1.27-.59,2c0,1.12.43,2.06,1.28,2.81s2.1,1.12,3.74,1.12,3.07-.36,4.34-1.07,2.2-1.68,2.79-2.92c.45-.95.68-2.36.68-4.22v-1.55Z" style="fill:#fff;"></path><path d="M545.82,225.94v-24.89h3.8v3.54c1.83-2.73,4.47-4.1,7.92-4.1,1.5,0,2.88.27,4.14.81s2.2,1.25,2.82,2.12,1.06,1.91,1.31,3.12c.16.78.23,2.15.23,4.1v15.3h-4.22v-15.14c0-1.72-.16-3-.49-3.86s-.91-1.53-1.75-2.04-1.82-.76-2.94-.76c-1.8,0-3.35.57-4.65,1.71s-1.96,3.3-1.96,6.49v13.59h-4.22Z" style="fill:#fff;"></path><path d="M581.73,222.16l.61,3.73c-1.19.25-2.25.38-3.19.38-1.53,0-2.72-.24-3.56-.73s-1.44-1.12-1.78-1.91-.52-2.45-.52-4.98v-14.32h-3.09v-3.28h3.09v-6.16l4.2-2.53v8.7h4.24v3.28h-4.24v14.55c0,1.2.07,1.98.22,2.32s.39.62.73.82.82.3,1.44.3c.47,0,1.09-.05,1.85-.16Z" style="fill:#fff;"></path><path d="M615.43,222.87c-1.56,1.33-3.07,2.27-4.51,2.81s-3,.82-4.65.82c-2.73,0-4.84-.67-6.3-2s-2.2-3.04-2.2-5.12c0-1.22.28-2.33.83-3.34s1.28-1.82,2.18-2.43,1.91-1.07,3.04-1.38c.83-.22,2.08-.43,3.75-.63,3.41-.41,5.91-.89,7.52-1.45.02-.58.02-.95.02-1.1,0-1.72-.4-2.93-1.2-3.63-1.08-.95-2.68-1.43-4.8-1.43-1.98,0-3.45.35-4.39,1.04s-1.64,1.93-2.1,3.69l-4.12-.56c.38-1.77.99-3.19,1.85-4.28s2.1-1.92,3.73-2.51,3.51-.88,5.65-.88,3.85.25,5.18.75,2.3,1.13,2.93,1.89,1.06,1.71,1.31,2.87c.14.72.21,2.02.21,3.89v5.62c0,3.92.09,6.4.27,7.44s.54,2.04,1.07,2.99h-4.41c-.44-.88-.72-1.9-.84-3.07ZM615.08,213.44c-1.53.62-3.83,1.16-6.89,1.59-1.73.25-2.96.53-3.68.84s-1.27.77-1.66,1.37-.59,1.27-.59,2c0,1.12.43,2.06,1.28,2.81s2.1,1.12,3.74,1.12,3.07-.36,4.34-1.07,2.2-1.68,2.79-2.92c.45-.95.68-2.36.68-4.22v-1.55Z" style="fill:#fff;"></path><path d="M625.11,228l4.1.61c.17,1.27.65,2.19,1.43,2.77,1.05.78,2.48,1.17,4.29,1.17,1.95,0,3.46-.39,4.52-1.17s1.78-1.88,2.16-3.28c.22-.86.32-2.66.3-5.41-1.84,2.17-4.14,3.26-6.89,3.26-3.42,0-6.07-1.23-7.95-3.7s-2.81-5.43-2.81-8.88c0-2.38.43-4.57,1.29-6.57s2.11-3.56,3.74-4.65,3.55-1.64,5.75-1.64c2.94,0,5.36,1.19,7.27,3.56v-3h3.89v21.52c0,3.88-.39,6.62-1.18,8.24s-2.04,2.89-3.75,3.83-3.82,1.41-6.32,1.41c-2.97,0-5.37-.67-7.2-2s-2.71-3.35-2.65-6.04ZM628.6,213.05c0,3.27.65,5.65,1.95,7.15s2.92,2.25,4.88,2.25,3.56-.75,4.88-2.24,1.97-3.83,1.97-7.02-.68-5.34-2.03-6.89-2.98-2.32-4.89-2.32-3.47.76-4.78,2.29-1.97,3.79-1.97,6.79Z" style="fill:#fff;"></path><path d="M652.53,225.94v-24.89h3.8v3.77c.97-1.77,1.86-2.93,2.68-3.49s1.72-.84,2.71-.84c1.42,0,2.87.45,4.34,1.36l-1.45,3.91c-1.03-.61-2.06-.91-3.09-.91-.92,0-1.75.28-2.48.83s-1.26,1.32-1.57,2.31c-.47,1.5-.7,3.14-.7,4.92v13.03h-4.22Z" style="fill:#fff;"></path><path d="M685.6,217.92l4.36.54c-.69,2.55-1.96,4.52-3.82,5.93s-4.23,2.11-7.12,2.11c-3.64,0-6.53-1.12-8.66-3.36s-3.2-5.39-3.2-9.43,1.08-7.44,3.23-9.75,4.95-3.47,8.39-3.47,6.05,1.13,8.16,3.4,3.16,5.45,3.16,9.56c0,.25,0,.62-.02,1.12h-18.56c.16,2.73.93,4.83,2.32,6.28s3.12,2.18,5.2,2.18c1.55,0,2.87-.41,3.96-1.22s1.96-2.11,2.6-3.89ZM671.75,211.1h13.9c-.19-2.09-.72-3.66-1.59-4.71-1.34-1.62-3.09-2.44-5.23-2.44-1.94,0-3.57.65-4.89,1.95s-2.05,3.03-2.19,5.2Z" style="fill:#fff;"></path><path d="M712.3,217.92l4.36.54c-.69,2.55-1.96,4.52-3.82,5.93s-4.23,2.11-7.12,2.11c-3.64,0-6.53-1.12-8.66-3.36s-3.2-5.39-3.2-9.43,1.08-7.44,3.23-9.75,4.95-3.47,8.39-3.47,6.05,1.13,8.16,3.4,3.16,5.45,3.16,9.56c0,.25,0,.62-.02,1.12h-18.56c.16,2.73.93,4.83,2.32,6.28s3.12,2.18,5.2,2.18c1.55,0,2.87-.41,3.96-1.22s1.96-2.11,2.6-3.89ZM698.44,211.1h13.9c-.19-2.09-.72-3.66-1.59-4.71-1.34-1.62-3.09-2.44-5.23-2.44-1.94,0-3.57.65-4.89,1.95s-2.05,3.03-2.19,5.2Z" style="fill:#fff;"></path><path d="M721.95,225.94v-24.89h3.77v3.49c.78-1.22,1.82-2.2,3.12-2.94s2.77-1.11,4.43-1.11c1.84,0,3.36.38,4.54,1.15s2.01,1.84,2.5,3.21c1.97-2.91,4.53-4.36,7.69-4.36,2.47,0,4.37.68,5.7,2.05s1.99,3.47,1.99,6.32v17.09h-4.2v-15.68c0-1.69-.14-2.9-.41-3.64s-.77-1.34-1.49-1.79-1.56-.68-2.53-.68c-1.75,0-3.2.58-4.36,1.75s-1.73,3.03-1.73,5.59v14.46h-4.22v-16.17c0-1.88-.34-3.28-1.03-4.22s-1.81-1.41-3.38-1.41c-1.19,0-2.29.31-3.29.94s-1.74,1.54-2.19,2.74-.68,2.94-.68,5.2v12.91h-4.22Z" style="fill:#fff;"></path><path d="M778.98,217.92l4.36.54c-.69,2.55-1.96,4.52-3.82,5.93s-4.23,2.11-7.12,2.11c-3.64,0-6.53-1.12-8.66-3.36s-3.2-5.39-3.2-9.43,1.08-7.44,3.23-9.75,4.95-3.47,8.39-3.47,6.05,1.13,8.16,3.4,3.16,5.45,3.16,9.56c0,.25,0,.62-.02,1.12h-18.56c.16,2.73.93,4.83,2.32,6.28s3.12,2.18,5.2,2.18c1.55,0,2.87-.41,3.96-1.22s1.96-2.11,2.6-3.89ZM765.12,211.1h13.9c-.19-2.09-.72-3.66-1.59-4.71-1.34-1.62-3.09-2.44-5.23-2.44-1.94,0-3.57.65-4.89,1.95s-2.05,3.03-2.19,5.2Z" style="fill:#fff;"></path><path d="M788.63,225.94v-24.89h3.8v3.54c1.83-2.73,4.47-4.1,7.92-4.1,1.5,0,2.88.27,4.14.81s2.2,1.25,2.82,2.12,1.06,1.91,1.31,3.12c.16.78.23,2.15.23,4.1v15.3h-4.22v-15.14c0-1.72-.16-3-.49-3.86s-.91-1.53-1.75-2.04-1.82-.76-2.94-.76c-1.8,0-3.35.57-4.65,1.71s-1.96,3.3-1.96,6.49v13.59h-4.22Z" style="fill:#fff;"></path><path d="M824.54,222.16l.61,3.73c-1.19.25-2.25.38-3.19.38-1.53,0-2.72-.24-3.56-.73s-1.44-1.12-1.78-1.91-.52-2.45-.52-4.98v-14.32h-3.09v-3.28h3.09v-6.16l4.2-2.53v8.7h4.24v3.28h-4.24v14.55c0,1.2.07,1.98.22,2.32s.39.62.73.82.82.3,1.44.3c.47,0,1.09-.05,1.85-.16Z" style="fill:#fff;"></path><path d="M842.49,225.94v-34.36h4.66l18.05,26.98v-26.98h4.36v34.36h-4.66l-18.05-27v27h-4.36Z" style="fill:#fff;"></path><path d="M875.09,213.49c0-4.61,1.28-8.02,3.84-10.24,2.14-1.84,4.75-2.77,7.83-2.77,3.42,0,6.22,1.12,8.39,3.36s3.26,5.34,3.26,9.29c0,3.2-.48,5.72-1.44,7.56s-2.36,3.26-4.2,4.28-3.84,1.52-6.01,1.52c-3.48,0-6.3-1.12-8.45-3.35s-3.22-5.45-3.22-9.66ZM879.43,213.49c0,3.19.7,5.57,2.09,7.16s3.14,2.38,5.25,2.38,3.84-.8,5.23-2.39,2.09-4.02,2.09-7.29c0-3.08-.7-5.41-2.1-7s-3.14-2.38-5.21-2.38-3.86.79-5.25,2.37-2.09,3.96-2.09,7.15Z" style="fill:#fff;"></path><path d="M933.31,212.46v-4.03l14.55-.02v12.75c-2.23,1.78-4.54,3.12-6.91,4.02s-4.81,1.35-7.31,1.35c-3.38,0-6.44-.72-9.2-2.17s-4.84-3.54-6.25-6.27-2.11-5.79-2.11-9.16.7-6.46,2.1-9.36,3.41-5.05,6.04-6.46,5.65-2.11,9.07-2.11c2.48,0,4.73.4,6.74,1.21s3.58,1.93,4.72,3.36,2.01,3.31,2.6,5.62l-4.1,1.12c-.52-1.75-1.16-3.12-1.92-4.12s-1.86-1.8-3.28-2.4-3-.9-4.73-.9c-2.08,0-3.88.32-5.39.95s-2.74,1.46-3.67,2.5-1.65,2.16-2.17,3.4c-.88,2.12-1.31,4.43-1.31,6.91,0,3.06.53,5.62,1.58,7.69s2.59,3.59,4.61,4.59,4.16,1.5,6.42,1.5c1.97,0,3.89-.38,5.77-1.14s3.3-1.57,4.27-2.43v-6.4h-10.1Z" style="fill:#fff;"></path><path d="M950.8,225.94l13.2-34.36h4.9l14.06,34.36h-5.18l-4.01-10.41h-14.37l-3.77,10.41h-4.83ZM960.71,211.83h11.65l-3.59-9.52c-1.09-2.89-1.91-5.27-2.44-7.12-.44,2.2-1.05,4.39-1.85,6.56l-3.77,10.08Z" style="fill:#fff;"></path><path d="M1011.45,225.94h-4.22v-26.88c-1.02.97-2.35,1.94-4,2.91s-3.13,1.7-4.44,2.18v-4.08c2.36-1.11,4.42-2.45,6.19-4.03s3.02-3.11,3.75-4.59h2.72v34.5Z" style="fill:#fff;"></path><path d="M1022.26,208.99c0-4.06.42-7.33,1.25-9.81s2.08-4.39,3.73-5.73,3.72-2.02,6.22-2.02c1.84,0,3.46.37,4.85,1.11s2.54,1.81,3.45,3.21,1.62,3.1,2.13,5.11.77,4.71.77,8.12c0,4.03-.41,7.29-1.24,9.76s-2.07,4.39-3.71,5.74-3.73,2.03-6.25,2.03c-3.31,0-5.91-1.19-7.8-3.56-2.27-2.86-3.4-7.52-3.4-13.97ZM1026.59,208.99c0,5.64.66,9.39,1.98,11.26s2.95,2.8,4.89,2.8,3.57-.94,4.89-2.81,1.98-5.62,1.98-11.25-.66-9.41-1.98-11.27-2.96-2.79-4.93-2.79-3.48.82-4.64,2.46c-1.45,2.09-2.18,5.96-2.18,11.6Z" style="fill:#fff;"></path><path d="M1064.84,225.94h-4.22v-26.88c-1.02.97-2.35,1.94-4,2.91s-3.13,1.7-4.44,2.18v-4.08c2.36-1.11,4.42-2.45,6.19-4.03s3.02-3.11,3.75-4.59h2.72v34.5Z" style="fill:#fff;"></path><path d="M1087.98,225.94h-4.22v-26.88c-1.02.97-2.35,1.94-4,2.91s-3.13,1.7-4.44,2.18v-4.08c2.36-1.11,4.42-2.45,6.19-4.03s3.02-3.11,3.75-4.59h2.72v34.5Z" style="fill:#fff;"></path><path d="M1105.27,207.3c-1.75-.64-3.05-1.55-3.89-2.74s-1.27-2.61-1.27-4.27c0-2.5.9-4.6,2.7-6.3s4.19-2.55,7.17-2.55,5.41.87,7.24,2.61,2.74,3.86,2.74,6.36c0,1.59-.42,2.98-1.25,4.16s-2.11,2.09-3.81,2.73c2.11.69,3.71,1.8,4.82,3.33s1.65,3.36,1.65,5.48c0,2.94-1.04,5.41-3.12,7.41s-4.81,3-8.2,3-6.12-1-8.2-3.01-3.12-4.51-3.12-7.51c0-2.23.57-4.11,1.7-5.61s2.75-2.54,4.84-3.08ZM1103.07,216.02c0,1.2.29,2.37.86,3.49s1.42,2,2.54,2.61,2.34.93,3.63.93c2.02,0,3.68-.65,4.99-1.95s1.97-2.95,1.97-4.95-.68-3.71-2.03-5.04-3.04-1.99-5.07-1.99-3.63.66-4.93,1.97-1.96,2.95-1.96,4.92ZM1104.43,200.16c0,1.62.52,2.95,1.57,3.98s2.41,1.55,4.08,1.55,2.96-.51,4-1.54,1.56-2.28,1.56-3.76-.54-2.85-1.61-3.9-2.4-1.58-4-1.58-2.95.52-4.01,1.55-1.59,2.27-1.59,3.7Z" style="fill:#fff;"></path><path d="M1147.65,221.88v4.05h-22.71c-.03-1.02.13-1.99.49-2.93.58-1.55,1.5-3.07,2.78-4.57s3.11-3.23,5.52-5.2c3.73-3.06,6.26-5.49,7.57-7.28s1.97-3.48,1.97-5.07c0-1.67-.6-3.08-1.79-4.23s-2.75-1.72-4.68-1.72c-2.03,0-3.66.61-4.88,1.83s-1.84,2.91-1.85,5.06l-4.34-.45c.3-3.23,1.41-5.7,3.35-7.39s4.54-2.54,7.8-2.54,5.91.91,7.83,2.74,2.88,4.09,2.88,6.8c0,1.38-.28,2.73-.84,4.05s-1.5,2.73-2.8,4.2-3.47,3.48-6.5,6.05c-2.53,2.12-4.16,3.57-4.88,4.32s-1.31,1.52-1.78,2.29h16.85Z" style="fill:#fff;"></path><path d="M1152.17,208.99c0-4.06.42-7.33,1.25-9.81s2.08-4.39,3.73-5.73,3.72-2.02,6.22-2.02c1.84,0,3.46.37,4.85,1.11s2.54,1.81,3.45,3.21,1.62,3.1,2.13,5.11.77,4.71.77,8.12c0,4.03-.41,7.29-1.24,9.76s-2.07,4.39-3.71,5.74-3.73,2.03-6.25,2.03c-3.31,0-5.91-1.19-7.8-3.56-2.27-2.86-3.4-7.52-3.4-13.97ZM1156.51,208.99c0,5.64.66,9.39,1.98,11.26s2.95,2.8,4.89,2.8,3.57-.94,4.89-2.81,1.98-5.62,1.98-11.25-.66-9.41-1.98-11.27-2.96-2.79-4.93-2.79-3.48.82-4.64,2.46c-1.45,2.09-2.18,5.96-2.18,11.6Z" style="fill:#fff;"></path><path d="M1201.04,221.88v4.05h-22.71c-.03-1.02.13-1.99.49-2.93.58-1.55,1.5-3.07,2.78-4.57s3.11-3.23,5.52-5.2c3.73-3.06,6.26-5.49,7.57-7.28s1.97-3.48,1.97-5.07c0-1.67-.6-3.08-1.79-4.23s-2.75-1.72-4.68-1.72c-2.03,0-3.66.61-4.88,1.83s-1.84,2.91-1.85,5.06l-4.34-.45c.3-3.23,1.41-5.7,3.35-7.39s4.54-2.54,7.8-2.54,5.91.91,7.83,2.74,2.88,4.09,2.88,6.8c0,1.38-.28,2.73-.84,4.05s-1.5,2.73-2.8,4.2-3.47,3.48-6.5,6.05c-2.53,2.12-4.16,3.57-4.88,4.32s-1.31,1.52-1.78,2.29h16.85Z" style="fill:#fff;"></path><path d="M1221.45,225.94h-4.22v-26.88c-1.02.97-2.35,1.94-4,2.91s-3.13,1.7-4.44,2.18v-4.08c2.36-1.11,4.42-2.45,6.19-4.03s3.02-3.11,3.75-4.59h2.72v34.5Z" style="fill:#fff;"></path><path d="M1234.62,225.94v-4.8h4.8v4.8h-4.8Z" style="fill:#fff;"></path></g></svg> 