<?xml version="1.0" encoding="UTF-8"?> <svg xmlns="http://www.w3.org/2000/svg" id="a" viewBox="0 0 1417.33 340.16"><path d="M420.95,170.79c0-32.07,21.76-55.3,51.7-55.3,22.09,0,42.38,13.74,48.43,32.72l-25.2,9.49c-2.94-11.45-12.6-19.63-22.91-19.63-15.38,0-26.51,13.58-26.51,32.23s11.45,32.56,27.16,32.56c12.43,0,22.09-8.67,23.23-20.94h-35.01v-17.02h57.92l5.24,58.9h-14.4l-5.56-20.94c-3.76,13.58-17.51,22.91-35.01,22.91-28.47,0-49.09-23.07-49.09-54.98Z" style="fill:#fff;"></path><path d="M538.1,117.45h53.01c19.31,0,33.38,13.91,33.38,33.05,0,13.74-7.85,24.71-20.12,29.78l22.09,43.52h-28.8l-14.56-40.58h-20.78v40.58h-24.22v-106.35ZM586.21,166.21c7.36,0,12.76-5.56,12.76-13.42s-5.4-13.42-12.76-13.42h-23.89v26.83h23.89Z" style="fill:#fff;"></path><path d="M638.24,117.45h75.92v21.93h-51.7v21.6h42.54v17.02h-42.54v23.56h53.67v22.25h-77.88v-106.35Z" style="fill:#fff;"></path><path d="M727.24,117.45h75.92v21.93h-51.7v21.6h42.54v17.02h-42.54v23.56h53.67v22.25h-77.88v-106.35Z" style="fill:#fff;"></path><path d="M816.25,117.45h27.49l37.96,70.68v-70.68h24.22v106.35h-26.18l-39.27-71.99v71.99h-24.22v-106.35Z" style="fill:#fff;"></path><path d="M972.02,225.76c-30.11,0-53.01-23.72-53.01-55.14s22.42-55.14,52.36-55.14c22.09,0,41.4,13.25,47.78,32.89l-25.2,9.82c-2.45-11.78-11.62-19.8-22.58-19.8-14.56,0-26.18,14.23-26.18,32.23s11.45,31.58,26.83,31.58c11.62,0,20.62-8.34,22.58-21.11l25.85,10.47c-5.73,20.12-25.52,34.2-48.43,34.2Z" style="fill:#fff;"></path><path d="M1028.96,170.62c0-31.91,22.25-55.14,53.01-55.14s53.01,23.23,53.01,55.14-22.25,55.14-53.01,55.14-53.01-23.23-53.01-55.14ZM1081.97,202.2c15.87,0,27.49-13.58,27.49-31.91s-11.62-31.91-27.49-31.91-27.49,13.25-27.49,31.91,11.62,31.91,27.49,31.91Z" style="fill:#fff;"></path><path d="M1144.15,170.62c0-31.91,22.25-55.14,53.01-55.14s53.01,23.23,53.01,55.14-22.25,55.14-53.01,55.14-53.01-23.23-53.01-55.14ZM1197.16,202.2c15.87,0,27.49-13.58,27.49-31.91s-11.62-31.91-27.49-31.91-27.49,13.25-27.49,31.91,11.62,31.91,27.49,31.91Z" style="fill:#fff;"></path><path d="M1263.26,117.45h50.39c20.12,0,34.69,14.4,34.69,34.36s-15.38,34.03-36.65,34.03h-24.22v37.96h-24.22v-106.35ZM1309.4,168.17c7.85,0,13.42-6.05,13.42-14.4s-5.56-14.4-13.42-14.4h-21.93v28.8h21.93Z" style="fill:#fff;"></path><polygon points="80.16 136.12 116.14 222.76 68.98 253.38 68.98 136.12 80.16 136.12" style="fill:#fff;"></polygon><polygon points="68.98 260.85 151.4 207.32 170.02 274.56 68.98 274.56 68.98 260.85" style="fill:#fff;"></polygon><path d="M217.34,136.13v20.9l-95.84,62.25-34.54-83.15h18.88c1.54,2.24,3.26,4.34,5.15,6.25,8.17,8.32,19.57,13.49,32.17,13.49,15.53,0,29.21-7.82,37.32-19.74h36.86Z" style="fill:#fff;"></path><polyline points="176.53 274.56 156.91 203.75 217.34 164.5 217.34 229.68 191.47 274.5 191.45 274.5 191.45 274.52" style="fill:#fff;"></polyline><path d="M188.28,110.74c0,9.41-2.87,18.14-7.8,25.39h-74.64c-4.93-7.25-7.8-15.97-7.8-25.39,0-24.92,20.2-45.14,45.12-45.14s45.12,20.22,45.12,45.14Z" style="fill:#fff;"></path><polygon points="333.23 73.88 333.23 155.87 305.55 155.87 282.75 116.37 259.96 155.87 232.25 155.87 232.25 73.88 333.23 73.88" style="fill:#fff;"></polygon><polygon points="217.34 229.68 191.47 274.5 191.45 274.5 217.34 229.68" style="fill:#fff;"></polygon><polygon points="292.04 274.52 217.34 274.52 217.34 229.68 240.94 188.8 272.24 193.47 292.04 274.52" style="fill:#fff;"></polygon><polygon points="328.43 195.52 244.3 182.96 259.96 155.87 305.55 155.87 328.43 195.52" style="fill:#fff;"></polygon><polygon points="374.04 274.51 298.48 274.51 278.93 194.46 332.43 202.45 374.04 274.51" style="fill:#fff;"></polygon></svg> 